<svg xmlns="http://www.w3.org/2000/svg" xmlns:xlink="http://www.w3.org/1999/xlink" width="720" zoomAndPan="magnify" viewBox="0 0 540 389.999986" height="520" preserveAspectRatio="xMidYMid meet" version="1.0"><defs><clipPath id="e89316679c"><path d="M 267 53.25 L 271 53.25 L 271 90 L 267 90 Z M 267 53.25 " clip-rule="nonzero"/></clipPath><clipPath id="2bae3f36af"><path d="M 157 275 L 205 275 L 205 336.75 L 157 336.75 Z M 157 275 " clip-rule="nonzero"/></clipPath><clipPath id="ace3fc08d2"><path d="M 164 290 L 202 290 L 202 336.75 L 164 336.75 Z M 164 290 " clip-rule="nonzero"/></clipPath><clipPath id="a57b159ea6"><path d="M 170 278 L 290 278 L 290 336.75 L 170 336.75 Z M 170 278 " clip-rule="nonzero"/></clipPath><clipPath id="0b901360e8"><path d="M 335 275 L 383 275 L 383 336.75 L 335 336.75 Z M 335 275 " clip-rule="nonzero"/></clipPath><clipPath id="04c78da10e"><path d="M 337 288 L 381 288 L 381 336.75 L 337 336.75 Z M 337 288 " clip-rule="nonzero"/></clipPath><clipPath id="8e659720f5"><path d="M 250 278 L 370 278 L 370 336.75 L 250 336.75 Z M 250 278 " clip-rule="nonzero"/></clipPath></defs><path fill="#f5e37d" d="M 283.105469 58.542969 C 284.90625 58.996094 286.984375 59.703125 287.539062 61.476562 C 287.898438 62.628906 287.46875 63.910156 287.769531 65.082031 C 288.222656 66.851562 290.117188 67.777344 291.800781 68.476562 C 297 70.636719 302.199219 72.792969 307.394531 74.949219 C 299.191406 76.679688 290.757812 77.050781 282.375 76.925781 C 280.59375 76.898438 278.511719 76.6875 277.570312 75.175781 C 276.960938 74.195312 277.003906 72.886719 276.273438 71.992188 C 274.761719 70.132812 271.484375 71.546875 269.503906 70.191406 C 269.464844 67.5625 269.425781 64.933594 269.382812 62.304688 C 269.363281 60.882812 268.574219 56.851562 269.726562 55.828125 C 270.929688 54.757812 274.285156 56.316406 275.589844 56.648438 C 278.09375 57.277344 280.597656 57.910156 283.105469 58.542969 Z M 283.105469 58.542969 " fill-opacity="1" fill-rule="nonzero"/><g clip-path="url(#e89316679c)"><path fill="#2a303a" d="M 269.183594 89.683594 C 269.183594 89.683594 269.183594 89.683594 269.179688 89.683594 C 268.523438 89.675781 267.992188 89.144531 267.996094 88.488281 L 268.164062 54.707031 C 268.171875 54.050781 268.699219 53.523438 269.351562 53.523438 C 269.355469 53.523438 269.355469 53.523438 269.359375 53.523438 C 270.011719 53.53125 270.542969 54.0625 270.539062 54.71875 L 270.371094 88.5 C 270.367188 89.15625 269.835938 89.683594 269.183594 89.683594 Z M 269.183594 89.683594 " fill-opacity="1" fill-rule="nonzero"/></g><path fill="#ef5350" d="M 199.5 302.632812 C 199.597656 304.488281 197.964844 309.289062 198.0625 311.144531 C 188.683594 311.558594 179.117188 311.910156 169.417969 312.167969 C 125.222656 313.449219 77.796875 313.222656 29.757812 313.160156 C 27.101562 313.160156 23.933594 313.382812 22.558594 310.792969 C 21.855469 309.480469 21.855469 307.847656 21.855469 306.3125 L 22.429688 175.644531 C 22.429688 170.234375 22.460938 164.796875 22.496094 159.386719 C 51.839844 160.636719 81.25 159.707031 110.597656 159.195312 C 125.605469 158.90625 140.617188 158.683594 155.625 158.8125 C 161.546875 158.875 170.859375 157.691406 178.699219 158.84375 C 183.820312 159.613281 188.269531 161.339844 190.734375 165.117188 C 194.15625 170.363281 194.347656 177.019531 194.445312 183.324219 C 195.019531 223.167969 193.773438 263.203125 199.5 302.632812 Z M 199.5 302.632812 " fill-opacity="1" fill-rule="nonzero"/><path fill="#d83636" d="M 199.5 302.632812 C 199.597656 304.488281 197.964844 309.289062 198.0625 311.144531 C 188.683594 311.558594 179.117188 311.910156 169.417969 312.167969 C 169.386719 311.625 169.355469 311.082031 169.324219 310.535156 C 166.828125 270.371094 166.21875 230.113281 167.5625 189.886719 C 167.691406 186.332031 167.5625 182.203125 164.683594 180.09375 C 162.984375 178.84375 160.746094 178.714844 158.632812 178.589844 C 140.746094 177.691406 122.855469 176.988281 104.964844 176.476562 C 77.730469 175.675781 49.730469 173.851562 22.429688 175.644531 C 22.429688 170.234375 22.460938 164.796875 22.496094 159.386719 C 51.839844 160.636719 81.25 159.707031 110.597656 159.195312 C 125.605469 158.90625 140.617188 158.683594 155.625 158.8125 C 161.546875 158.875 170.859375 157.691406 178.699219 158.84375 C 183.820312 159.613281 188.269531 161.339844 190.734375 165.117188 C 194.15625 170.363281 194.347656 177.019531 194.445312 183.324219 C 195.019531 223.167969 193.773438 263.203125 199.5 302.632812 Z M 199.5 302.632812 " fill-opacity="1" fill-rule="nonzero"/><path fill="#bcbcaf" d="M 348.132812 255.609375 C 347.242188 234.484375 346.351562 213.363281 345.457031 192.238281 C 345.105469 183.859375 346.722656 174.882812 346.101562 166.742188 C 345.507812 158.9375 334.277344 157.625 326.199219 156.964844 C 313.402344 155.921875 300.554688 155.253906 287.695312 154.929688 C 287.601562 154.929688 287.503906 154.921875 287.410156 154.921875 C 286.359375 154.894531 285.308594 154.902344 284.261719 154.882812 C 279.507812 154.785156 274.753906 154.699219 270 154.703125 C 265.246094 154.699219 260.492188 154.785156 255.738281 154.882812 C 254.691406 154.902344 253.640625 154.894531 252.589844 154.921875 C 252.496094 154.921875 252.398438 154.929688 252.304688 154.929688 C 239.445312 155.253906 226.597656 155.921875 213.800781 156.964844 C 205.722656 157.625 194.492188 158.9375 193.898438 166.742188 C 193.277344 174.882812 194.894531 183.859375 194.539062 192.238281 C 193.648438 213.363281 192.757812 234.484375 191.867188 255.609375 C 191.65625 260.539062 191.726562 266.070312 196.050781 269.589844 C 200.121094 272.902344 206.539062 273.257812 212.339844 273.386719 C 225.320312 273.683594 238.304688 273.871094 251.285156 273.96875 C 251.886719 273.988281 252.484375 274.003906 253.066406 274.007812 C 258.710938 274.039062 264.355469 273.992188 270 273.988281 C 275.644531 273.992188 281.289062 274.039062 286.933594 274.007812 C 287.515625 274.003906 288.113281 273.988281 288.714844 273.96875 C 301.695312 273.871094 314.679688 273.683594 327.65625 273.386719 C 333.460938 273.257812 339.878906 272.902344 343.949219 269.589844 C 348.273438 266.070312 348.34375 260.539062 348.132812 255.609375 Z M 348.132812 255.609375 " fill-opacity="1" fill-rule="nonzero"/><g clip-path="url(#2bae3f36af)"><path fill="#f0f0e4" d="M 204.71875 283.492188 C 204.6875 285.734375 203.40625 287.71875 202.191406 289.574219 C 202.0625 289.796875 201.902344 289.992188 201.773438 290.214844 C 196.207031 298.597656 190.667969 307.015625 185.101562 315.402344 C 183.789062 317.382812 182.605469 319.6875 180.90625 321.417969 C 179.949219 322.378906 178.601562 322.984375 177.773438 324.074219 C 175.4375 327.242188 176.492188 331.882812 173.515625 334.761719 C 171.53125 336.683594 168.523438 336.90625 165.769531 337.035156 L 165.738281 337.035156 C 163.339844 337.164062 160.554688 337.097656 159.113281 335.144531 C 158.378906 334.152344 158.1875 332.875 158.058594 331.625 C 157.609375 327.65625 157.066406 323.015625 157.800781 319.050781 C 158.3125 316.265625 160.457031 314.121094 162.1875 311.878906 C 169.996094 301.800781 177.929688 291.8125 185.582031 281.636719 C 188.203125 278.179688 189.773438 276.261719 194.414062 276.003906 C 198.894531 275.78125 204.8125 278.179688 204.71875 283.492188 Z M 204.71875 283.492188 " fill-opacity="1" fill-rule="nonzero"/></g><g clip-path="url(#ace3fc08d2)"><path fill="#d8d8ca" d="M 201.773438 290.214844 C 196.207031 298.597656 190.667969 307.015625 185.101562 315.402344 C 183.789062 317.382812 182.605469 319.6875 180.90625 321.417969 C 179.949219 322.378906 178.601562 322.984375 177.773438 324.074219 C 175.4375 327.242188 176.492188 331.882812 173.515625 334.761719 C 171.53125 336.683594 168.523438 336.90625 165.769531 337.035156 L 165.738281 337.035156 C 165.644531 336.171875 165.578125 335.339844 165.484375 334.507812 C 165.164062 331.722656 164.84375 328.9375 164.554688 326.152344 C 164.332031 324.167969 164.105469 322.121094 164.714844 320.234375 C 165.546875 317.449219 178.890625 303.304688 183.757812 298.632812 C 188.652344 293.992188 194.828125 290.152344 201.582031 290.214844 Z M 201.773438 290.214844 " fill-opacity="1" fill-rule="nonzero"/></g><g clip-path="url(#a57b159ea6)"><path fill="#707067" d="M 170.652344 326.457031 C 170.828125 327.066406 170.652344 336.363281 170.652344 336.363281 C 211.871094 336.363281 245.394531 336.167969 281.335938 335.015625 C 283.117188 334.960938 283.5 333.707031 284.722656 332.414062 C 285.703125 331.375 285.933594 329.851562 286.117188 328.433594 C 287.191406 320.109375 288.265625 311.78125 289.339844 303.453125 C 289.945312 298.75 290.394531 293.449219 287.390625 289.777344 C 284.929688 286.769531 280.839844 285.757812 277.046875 284.914062 C 264.886719 282.222656 252.671875 279.519531 240.246094 278.648438 C 229.820312 277.917969 213.578125 277.171875 204.445312 283.300781 C 200.796875 285.75 171.128906 321.464844 170.652344 326.457031 Z M 170.652344 326.457031 " fill-opacity="1" fill-rule="nonzero"/></g><path fill="#707067" d="M 218.832031 156.347656 C 218.542969 158.9375 218.128906 161.753906 216.238281 163.546875 C 213.359375 166.234375 208.910156 164.1875 204.972656 164.316406 C 176.042969 165.371094 138.984375 167.164062 30.941406 166.492188 C 26.816406 166.460938 14.238281 168.1875 7.261719 165.722656 C 4.859375 164.890625 3.132812 163.515625 2.652344 161.433594 C 1.851562 157.980469 5.085938 155.003906 7.964844 152.921875 C 16.125 147.035156 24.285156 141.144531 32.445312 135.257812 C 34.589844 133.6875 36.703125 132.058594 38.847656 130.457031 C 44.0625 126.457031 49.441406 122.550781 55.519531 120.375 C 62.851562 117.78125 70.753906 117.65625 78.53125 117.527344 C 118.664062 116.984375 158.824219 116.40625 198.957031 115.832031 C 202.191406 115.800781 205.679688 115.863281 208.8125 116.664062 C 211.472656 117.304688 213.871094 118.488281 215.664062 120.566406 C 218.894531 124.34375 218.960938 129.785156 218.765625 134.746094 C 218.445312 143.546875 219.824219 147.609375 218.832031 156.347656 Z M 218.832031 156.347656 " fill-opacity="1" fill-rule="nonzero"/><path fill="#51514a" d="M 218.832031 156.347656 C 218.542969 158.9375 218.128906 161.753906 216.238281 163.546875 C 213.359375 166.234375 208.910156 164.1875 204.972656 164.316406 C 176.042969 165.371094 138.984375 167.164062 30.941406 166.492188 C 26.816406 166.460938 14.238281 168.1875 7.261719 165.722656 C 8.894531 163.546875 11.421875 161.789062 13.566406 160.828125 C 19.453125 158.074219 27.199219 158.460938 33.566406 157.753906 C 41.183594 156.953125 48.769531 156.121094 56.386719 155.324219 C 73.539062 153.464844 90.722656 151.609375 107.878906 149.753906 C 120.742188 148.378906 133.640625 146.96875 146.089844 143.417969 C 156.839844 140.3125 167.082031 135.671875 177.292969 131.03125 C 187.789062 126.230469 198.316406 121.464844 208.8125 116.664062 C 211.472656 117.304688 213.871094 118.488281 215.664062 120.566406 C 218.894531 124.34375 218.960938 129.785156 218.765625 134.746094 C 218.445312 143.546875 219.824219 147.609375 218.832031 156.347656 Z M 218.832031 156.347656 " fill-opacity="1" fill-rule="nonzero"/><path fill="#f0f0e4" d="M 235.476562 157.140625 C 228.503906 154.808594 220.101562 156.285156 212.84375 156.328125 C 205.175781 156.371094 197.507812 156.324219 189.84375 156.351562 C 174.140625 156.410156 158.4375 156.46875 142.738281 156.527344 C 111.601562 156.644531 80.460938 156.609375 49.328125 156.886719 C 33.6875 157.027344 18.15625 157.386719 2.539062 158.238281 C 1.8125 158.277344 0.988281 158.371094 0.566406 158.960938 C 0.226562 159.433594 0.265625 160.066406 0.320312 160.640625 C 0.46875 162.265625 0.621094 163.894531 0.769531 165.519531 C 0.855469 166.4375 0.964844 167.417969 1.546875 168.132812 C 2.9375 169.847656 7.453125 169.195312 9.484375 169.136719 C 13.691406 169.019531 17.898438 168.933594 22.113281 168.941406 C 30.386719 168.953125 38.660156 169.175781 46.933594 169.203125 C 62.367188 169.253906 77.804688 169.167969 93.238281 169.136719 L 185.851562 168.953125 C 194.332031 168.9375 202.8125 168.914062 211.296875 168.839844 C 219.246094 168.769531 229.757812 169.566406 236.449219 164.589844 C 239.261719 162.496094 238.996094 158.320312 235.476562 157.140625 Z M 235.476562 157.140625 " fill-opacity="1" fill-rule="nonzero"/><path fill="#f0f0e4" d="M 173.847656 138.609375 C 171.96875 140.351562 170.582031 142.171875 170.789062 143.675781 C 171.132812 146.136719 174.382812 146.714844 176.863281 146.683594 C 206.132812 146.289062 235.402344 145.894531 264.671875 145.5 C 266.726562 145.472656 268.921875 145.398438 270.59375 144.207031 C 273.011719 142.480469 273.441406 139.125 273.664062 136.164062 C 274.554688 124.320312 275.488281 112.480469 276.328125 100.632812 C 276.871094 92.929688 276.214844 85.847656 267.289062 87.792969 C 256.148438 90.226562 187.628906 128.914062 181.757812 132.796875 C 180.242188 133.804688 176.539062 136.125 173.847656 138.609375 Z M 173.847656 138.609375 " fill-opacity="1" fill-rule="nonzero"/><path fill="#f0f0e4" d="M 270.636719 156.460938 C 272.597656 156.511719 274.886719 156.40625 276.027344 154.8125 C 276.859375 153.640625 276.757812 152.074219 276.621094 150.644531 C 276.078125 145.042969 275.539062 139.441406 274.996094 133.839844 C 274.914062 132.964844 274.792969 132.015625 274.160156 131.402344 C 273.453125 130.71875 272.355469 130.699219 271.371094 130.722656 C 242.925781 131.40625 213.765625 133.074219 185.578125 137.101562 C 181.441406 137.691406 176.867188 138.730469 175.28125 143.101562 C 174.613281 144.9375 174.667969 146.988281 174.835938 148.902344 C 174.929688 149.925781 174.96875 151.296875 175.34375 152.257812 C 176.191406 154.4375 176.925781 154.023438 179.347656 154.078125 C 193.75 154.390625 208.152344 154.828125 222.558594 155.207031 C 238.582031 155.625 254.609375 156.042969 270.636719 156.460938 Z M 270.636719 156.460938 " fill-opacity="1" fill-rule="nonzero"/><path fill="#f0f0e4" d="M 180.488281 177.050781 C 180.582031 178.390625 180.800781 179.914062 181.925781 180.648438 C 182.664062 181.128906 183.605469 181.128906 184.484375 181.109375 C 214.644531 180.496094 244.800781 179.882812 274.960938 179.269531 C 276.976562 179.226562 279.152344 179.128906 280.714844 177.859375 C 282.714844 176.234375 282.980469 173.335938 283.085938 170.761719 C 283.386719 163.605469 283.691406 156.453125 283.992188 149.292969 C 284.082031 147.125 284.078125 144.6875 282.566406 143.125 C 281.070312 141.574219 278.660156 141.476562 276.507812 141.484375 C 247.320312 141.613281 218.140625 142.898438 189.054688 145.335938 C 187.222656 145.488281 185.328125 145.667969 183.726562 146.570312 C 179.574219 148.921875 180.226562 155.324219 180.109375 159.269531 C 179.933594 165.195312 180.058594 171.136719 180.488281 177.050781 Z M 180.488281 177.050781 " fill-opacity="1" fill-rule="nonzero"/><path fill="#f0f0e4" d="M 203.195312 214.285156 C 203.09375 208.765625 202.996094 203.246094 202.898438 197.726562 C 202.792969 191.957031 203.226562 185.910156 201.882812 180.210938 C 201.191406 177.292969 196.785156 175.382812 193.085938 175.722656 C 188.761719 176.121094 186.523438 178.445312 185.921875 181.503906 C 184.863281 186.855469 185.660156 192.640625 185.761719 198.054688 C 185.867188 203.574219 185.972656 209.09375 186.078125 214.617188 C 186.292969 225.65625 186.40625 236.699219 186.726562 247.738281 C 186.804688 250.386719 189.132812 253.324219 192.851562 253.972656 C 194.449219 254.253906 195.773438 254.34375 197.386719 254.058594 C 200.949219 253.433594 203.8125 250.824219 203.789062 248.070312 C 203.699219 236.808594 203.398438 225.546875 203.195312 214.285156 Z M 203.195312 214.285156 " fill-opacity="1" fill-rule="nonzero"/><path fill="#f0f0e4" d="M 256.175781 214.285156 C 256.078125 208.765625 255.976562 203.246094 255.878906 197.726562 C 255.773438 191.957031 256.210938 185.910156 254.863281 180.210938 C 254.171875 177.292969 249.769531 175.382812 246.066406 175.722656 C 241.742188 176.121094 239.507812 178.445312 238.902344 181.503906 C 237.847656 186.855469 238.640625 192.640625 238.746094 198.054688 C 238.851562 203.574219 238.957031 209.09375 239.0625 214.617188 C 239.273438 225.65625 239.386719 236.699219 239.707031 247.738281 C 239.785156 250.386719 242.117188 253.324219 245.832031 253.972656 C 247.433594 254.253906 248.753906 254.34375 250.367188 254.058594 C 253.929688 253.433594 256.792969 250.824219 256.769531 248.070312 C 256.679688 236.808594 256.378906 225.546875 256.175781 214.285156 Z M 256.175781 214.285156 " fill-opacity="1" fill-rule="nonzero"/><path fill="#2a303a" d="M 61.355469 188.230469 C 61.222656 185.378906 44.664062 186.398438 44.015625 187.242188 C 43.667969 187.691406 43.675781 189.683594 43.652344 190.617188 C 43.621094 191.933594 43.585938 204.6875 43.769531 209.746094 C 43.796875 210.496094 43.851562 211.308594 44.339844 211.875 C 44.9375 212.574219 45.972656 212.664062 46.890625 212.691406 C 49.710938 212.773438 59.585938 213.429688 60.757812 211.933594 C 61.300781 211.238281 61.335938 210.289062 61.34375 209.40625 C 61.390625 203.722656 61.40625 189.328125 61.355469 188.230469 Z M 61.355469 188.230469 " fill-opacity="1" fill-rule="nonzero"/><path fill="#2a303a" d="M 96.335938 188.230469 C 96.203125 185.378906 79.644531 186.398438 78.996094 187.242188 C 78.648438 187.691406 78.652344 189.683594 78.632812 190.617188 C 78.601562 191.933594 78.5625 204.6875 78.75 209.746094 C 78.777344 210.496094 78.832031 211.308594 79.320312 211.875 C 79.917969 212.574219 80.949219 212.664062 81.871094 212.691406 C 84.6875 212.773438 94.5625 213.429688 95.738281 211.933594 C 96.28125 211.238281 96.316406 210.289062 96.320312 209.40625 C 96.367188 203.722656 96.386719 189.328125 96.335938 188.230469 Z M 96.335938 188.230469 " fill-opacity="1" fill-rule="nonzero"/><path fill="#2a303a" d="M 131.3125 188.230469 C 131.179688 185.378906 114.621094 186.398438 113.972656 187.242188 C 113.628906 187.691406 113.632812 189.683594 113.609375 190.617188 C 113.578125 191.933594 113.542969 204.6875 113.730469 209.746094 C 113.757812 210.496094 113.808594 211.308594 114.296875 211.875 C 114.898438 212.574219 115.929688 212.664062 116.847656 212.691406 C 119.667969 212.773438 129.542969 213.429688 130.71875 211.933594 C 131.261719 211.238281 131.292969 210.289062 131.300781 209.40625 C 131.347656 203.722656 131.363281 189.328125 131.3125 188.230469 Z M 131.3125 188.230469 " fill-opacity="1" fill-rule="nonzero"/><path fill="#2a303a" d="M 166.292969 188.230469 C 166.160156 185.378906 149.601562 186.398438 148.953125 187.242188 C 148.605469 187.691406 148.613281 189.683594 148.589844 190.617188 C 148.558594 191.933594 148.523438 204.6875 148.707031 209.746094 C 148.734375 210.496094 148.789062 211.308594 149.277344 211.875 C 149.875 212.574219 150.90625 212.664062 151.828125 212.691406 C 154.644531 212.773438 164.519531 213.429688 165.695312 211.933594 C 166.238281 211.238281 166.273438 210.289062 166.28125 209.40625 C 166.324219 203.722656 166.34375 189.328125 166.292969 188.230469 Z M 166.292969 188.230469 " fill-opacity="1" fill-rule="nonzero"/><path fill="#2a303a" d="M 61.355469 231.523438 C 61.222656 228.671875 44.664062 229.695312 44.015625 230.535156 C 43.667969 230.988281 43.675781 232.976562 43.652344 233.914062 C 43.621094 235.230469 43.585938 247.984375 43.769531 253.042969 C 43.796875 253.792969 43.851562 254.601562 44.339844 255.171875 C 44.9375 255.871094 45.972656 255.960938 46.890625 255.988281 C 49.710938 256.070312 59.585938 256.726562 60.757812 255.226562 C 61.300781 254.535156 61.335938 253.582031 61.34375 252.703125 C 61.390625 247.019531 61.40625 232.625 61.355469 231.523438 Z M 61.355469 231.523438 " fill-opacity="1" fill-rule="nonzero"/><path fill="#2a303a" d="M 96.335938 231.523438 C 96.203125 228.671875 79.644531 229.695312 78.996094 230.535156 C 78.648438 230.988281 78.652344 232.976562 78.632812 233.914062 C 78.601562 235.230469 78.5625 247.984375 78.75 253.042969 C 78.777344 253.792969 78.832031 254.601562 79.320312 255.171875 C 79.917969 255.871094 80.949219 255.960938 81.871094 255.988281 C 84.6875 256.070312 94.5625 256.726562 95.738281 255.226562 C 96.28125 254.535156 96.316406 253.582031 96.320312 252.703125 C 96.367188 247.019531 96.386719 232.625 96.335938 231.523438 Z M 96.335938 231.523438 " fill-opacity="1" fill-rule="nonzero"/><path fill="#2a303a" d="M 131.3125 231.523438 C 131.179688 228.671875 114.621094 229.695312 113.972656 230.535156 C 113.628906 230.988281 113.632812 232.976562 113.609375 233.914062 C 113.578125 235.230469 113.542969 247.984375 113.730469 253.042969 C 113.757812 253.792969 113.808594 254.601562 114.296875 255.171875 C 114.898438 255.871094 115.929688 255.960938 116.847656 255.988281 C 119.667969 256.070312 129.542969 256.726562 130.71875 255.226562 C 131.261719 254.535156 131.292969 253.582031 131.300781 252.703125 C 131.347656 247.019531 131.363281 232.625 131.3125 231.523438 Z M 131.3125 231.523438 " fill-opacity="1" fill-rule="nonzero"/><path fill="#2a303a" d="M 166.292969 231.523438 C 166.160156 228.671875 149.601562 229.695312 148.953125 230.535156 C 148.605469 230.988281 148.613281 232.976562 148.589844 233.914062 C 148.558594 235.230469 148.523438 247.984375 148.707031 253.042969 C 148.734375 253.792969 148.789062 254.601562 149.277344 255.171875 C 149.875 255.871094 150.90625 255.960938 151.828125 255.988281 C 154.644531 256.070312 164.519531 256.726562 165.695312 255.226562 C 166.238281 254.535156 166.273438 253.582031 166.28125 252.703125 C 166.324219 247.019531 166.34375 232.625 166.292969 231.523438 Z M 166.292969 231.523438 " fill-opacity="1" fill-rule="nonzero"/><path fill="#2a303a" d="M 61.355469 274.820312 C 61.222656 271.96875 44.664062 272.992188 44.015625 273.832031 C 43.667969 274.28125 43.675781 276.273438 43.652344 277.207031 C 43.621094 278.523438 43.585938 291.277344 43.769531 296.335938 C 43.796875 297.085938 43.851562 297.898438 44.339844 298.46875 C 44.9375 299.167969 45.972656 299.253906 46.890625 299.28125 C 49.710938 299.363281 59.585938 300.019531 60.757812 298.523438 C 61.300781 297.832031 61.335938 296.878906 61.34375 296 C 61.390625 290.3125 61.40625 275.921875 61.355469 274.820312 Z M 61.355469 274.820312 " fill-opacity="1" fill-rule="nonzero"/><path fill="#2a303a" d="M 96.335938 274.820312 C 96.203125 271.96875 79.644531 272.992188 78.996094 273.832031 C 78.648438 274.28125 78.652344 276.273438 78.632812 277.207031 C 78.601562 278.523438 78.5625 291.277344 78.75 296.335938 C 78.777344 297.085938 78.832031 297.898438 79.320312 298.46875 C 79.917969 299.167969 80.949219 299.253906 81.871094 299.28125 C 84.6875 299.363281 94.5625 300.019531 95.738281 298.523438 C 96.28125 297.832031 96.316406 296.878906 96.320312 296 C 96.367188 290.3125 96.386719 275.921875 96.335938 274.820312 Z M 96.335938 274.820312 " fill-opacity="1" fill-rule="nonzero"/><path fill="#2a303a" d="M 131.3125 274.820312 C 131.179688 271.96875 114.621094 272.992188 113.972656 273.832031 C 113.628906 274.28125 113.632812 276.273438 113.609375 277.207031 C 113.578125 278.523438 113.542969 291.277344 113.730469 296.335938 C 113.757812 297.085938 113.808594 297.898438 114.296875 298.46875 C 114.898438 299.167969 115.929688 299.253906 116.847656 299.28125 C 119.667969 299.363281 129.542969 300.019531 130.71875 298.523438 C 131.261719 297.832031 131.292969 296.878906 131.300781 296 C 131.347656 290.3125 131.363281 275.921875 131.3125 274.820312 Z M 131.3125 274.820312 " fill-opacity="1" fill-rule="nonzero"/><path fill="#2a303a" d="M 166.292969 274.820312 C 166.160156 271.96875 149.601562 272.992188 148.953125 273.832031 C 148.605469 274.28125 148.613281 276.273438 148.589844 277.207031 C 148.558594 278.523438 148.523438 291.277344 148.707031 296.335938 C 148.734375 297.085938 148.789062 297.898438 149.277344 298.46875 C 149.875 299.167969 150.90625 299.253906 151.828125 299.28125 C 154.644531 299.363281 164.519531 300.019531 165.695312 298.523438 C 166.238281 297.832031 166.273438 296.878906 166.28125 296 C 166.324219 290.3125 166.34375 275.921875 166.292969 274.820312 Z M 166.292969 274.820312 " fill-opacity="1" fill-rule="nonzero"/><path fill="#ef5350" d="M 518.152344 306.3125 C 518.152344 307.847656 518.121094 309.480469 517.449219 310.792969 C 516.074219 313.382812 512.871094 313.160156 510.246094 313.160156 C 451.652344 313.257812 393.917969 313.542969 341.945312 311.144531 C 342.042969 309.289062 340.410156 304.488281 340.472656 302.632812 C 346.234375 263.203125 344.953125 223.167969 345.5625 183.324219 C 345.59375 181.949219 345.625 180.574219 345.691406 179.164062 C 345.882812 174.171875 346.585938 169.210938 349.273438 165.117188 C 351.707031 161.339844 356.1875 159.613281 361.308594 158.84375 C 369.148438 157.691406 378.460938 158.875 384.347656 158.8125 C 399.390625 158.683594 414.398438 158.90625 429.410156 159.195312 C 458.753906 159.707031 488.167969 160.636719 517.511719 159.386719 C 517.671875 201.789062 517.867188 244.226562 518.054688 286.628906 Z M 518.152344 306.3125 " fill-opacity="1" fill-rule="nonzero"/><path fill="#d83636" d="M 518.054688 286.628906 C 509.769531 252.035156 504.199219 216.769531 501.382812 181.308594 C 486.117188 181.179688 470.820312 181.019531 455.554688 180.894531 C 428.640625 180.636719 401.726562 180.382812 374.84375 180.125 C 365.5625 180.027344 354.9375 181.4375 345.691406 179.164062 C 345.882812 174.171875 346.585938 169.210938 349.273438 165.117188 C 351.707031 161.339844 356.1875 159.613281 361.308594 158.84375 C 369.148438 157.691406 378.460938 158.875 384.347656 158.8125 C 399.390625 158.683594 414.398438 158.90625 429.410156 159.195312 C 458.753906 159.707031 488.167969 160.636719 517.511719 159.386719 C 517.671875 201.789062 517.867188 244.226562 518.054688 286.628906 Z M 518.054688 286.628906 " fill-opacity="1" fill-rule="nonzero"/><g clip-path="url(#0b901360e8)"><path fill="#f0f0e4" d="M 381.949219 331.625 C 381.820312 332.84375 381.628906 334.089844 380.894531 335.082031 C 380.894531 335.113281 380.859375 335.113281 380.859375 335.144531 C 379.421875 337.097656 376.636719 337.164062 374.238281 337.035156 C 371.484375 336.90625 368.476562 336.683594 366.492188 334.761719 C 363.484375 331.882812 364.570312 327.242188 362.234375 324.074219 C 361.402344 322.984375 360.058594 322.378906 359.066406 321.417969 C 357.402344 319.6875 356.21875 317.382812 354.90625 315.402344 C 349.210938 306.792969 343.515625 298.183594 337.816406 289.574219 C 337.65625 289.316406 337.496094 289.09375 337.335938 288.839844 C 336.28125 287.207031 335.320312 285.445312 335.289062 283.492188 C 335.195312 278.179688 341.113281 275.78125 345.59375 276.003906 C 350.234375 276.261719 351.800781 278.179688 354.425781 281.636719 C 362.074219 291.8125 370.011719 301.800781 377.789062 311.878906 C 379.515625 314.121094 381.660156 316.265625 382.203125 319.050781 C 382.941406 323.015625 382.398438 327.65625 381.949219 331.625 Z M 381.949219 331.625 " fill-opacity="1" fill-rule="nonzero"/></g><g clip-path="url(#04c78da10e)"><path fill="#d8d8ca" d="M 380.894531 335.082031 C 380.894531 335.113281 380.859375 335.113281 380.859375 335.144531 C 379.421875 337.097656 376.636719 337.164062 374.238281 337.035156 C 371.484375 336.90625 368.476562 336.683594 366.492188 334.761719 C 363.484375 331.882812 364.570312 327.242188 362.234375 324.074219 C 361.402344 322.984375 360.058594 322.378906 359.066406 321.417969 C 357.402344 319.6875 356.21875 317.382812 354.90625 315.402344 C 349.210938 306.792969 343.515625 298.183594 337.816406 289.574219 C 337.65625 289.316406 337.496094 289.09375 337.335938 288.839844 C 337.6875 288.871094 338.074219 288.933594 338.394531 288.996094 C 344.507812 290.40625 349.59375 294.535156 354.042969 298.949219 C 358.492188 303.367188 376.859375 316.234375 379.070312 320.519531 C 380.316406 322.953125 380.445312 325.769531 380.574219 328.488281 C 380.667969 330.699219 380.796875 332.875 380.894531 335.082031 Z M 380.894531 335.082031 " fill-opacity="1" fill-rule="nonzero"/></g><g clip-path="url(#8e659720f5)"><path fill="#707067" d="M 369.347656 326.457031 C 369.171875 327.066406 369.347656 336.363281 369.347656 336.363281 C 328.128906 336.363281 294.605469 336.167969 258.664062 335.015625 C 256.882812 334.960938 256.5 333.707031 255.277344 332.414062 C 254.296875 331.375 254.066406 329.851562 253.882812 328.433594 C 252.808594 320.109375 251.734375 311.78125 250.660156 303.453125 C 250.054688 298.75 249.605469 293.449219 252.609375 289.777344 C 255.070312 286.769531 259.160156 285.757812 262.953125 284.914062 C 275.113281 282.222656 287.328125 279.519531 299.753906 278.648438 C 310.179688 277.917969 326.421875 277.171875 335.554688 283.300781 C 339.203125 285.75 368.867188 321.464844 369.347656 326.457031 Z M 369.347656 326.457031 " fill-opacity="1" fill-rule="nonzero"/></g><path fill="#707067" d="M 537.484375 160.476562 C 537.484375 160.796875 537.449219 161.113281 537.355469 161.433594 C 535.625 168.796875 518.441406 166.972656 511.082031 166.554688 C 510.28125 166.523438 509.609375 166.492188 509.0625 166.492188 C 401.023438 167.164062 363.964844 165.371094 335.03125 164.316406 C 332.183594 164.21875 329.046875 165.277344 326.457031 164.828125 C 325.464844 164.667969 324.566406 164.285156 323.769531 163.546875 C 321.878906 161.753906 321.433594 158.9375 321.144531 156.347656 C 320.183594 147.609375 321.558594 143.546875 321.207031 134.746094 C 321.015625 129.785156 321.113281 124.34375 324.34375 120.566406 C 328.21875 116.023438 335.066406 115.765625 341.050781 115.832031 C 381.179688 116.40625 421.34375 116.984375 461.476562 117.527344 C 469.253906 117.65625 477.15625 117.78125 484.484375 120.375 C 490.566406 122.550781 495.941406 126.457031 501.160156 130.457031 C 503.304688 132.058594 505.414062 133.6875 507.527344 135.257812 C 515.6875 141.144531 523.851562 147.035156 532.011719 152.921875 C 533.128906 153.722656 534.347656 154.683594 535.304688 155.738281 C 536.617188 157.144531 537.515625 158.746094 537.484375 160.476562 Z M 537.484375 160.476562 " fill-opacity="1" fill-rule="nonzero"/><path fill="#51514a" d="M 537.484375 160.476562 C 528.96875 163.546875 520.136719 165.4375 511.082031 166.554688 C 510.28125 166.523438 509.609375 166.492188 509.0625 166.492188 C 401.023438 167.164062 363.964844 165.371094 335.03125 164.316406 C 332.183594 164.21875 329.046875 165.277344 326.457031 164.828125 C 319.800781 157.210938 322.167969 143.609375 334.359375 142.167969 C 339.195312 141.59375 344.25 144.441406 348.859375 145.5625 C 357.148438 147.578125 366.042969 147.898438 374.523438 148.570312 C 411.039062 151.449219 447.714844 150.585938 484.292969 151.898438 C 501.351562 152.507812 518.410156 153.59375 535.304688 155.738281 C 536.617188 157.144531 537.515625 158.746094 537.484375 160.476562 Z M 537.484375 160.476562 " fill-opacity="1" fill-rule="nonzero"/><path fill="#f0f0e4" d="M 304.523438 157.140625 C 311.496094 154.808594 319.898438 156.285156 327.15625 156.328125 C 334.824219 156.371094 342.492188 156.324219 350.15625 156.351562 C 365.859375 156.410156 381.5625 156.46875 397.261719 156.527344 C 428.398438 156.644531 459.539062 156.609375 490.671875 156.886719 C 506.3125 157.027344 521.84375 157.386719 537.460938 158.238281 C 538.1875 158.277344 539.011719 158.371094 539.433594 158.960938 C 539.769531 159.433594 539.734375 160.066406 539.679688 160.640625 C 539.53125 162.265625 539.378906 163.894531 539.230469 165.519531 C 539.144531 166.4375 539.035156 167.417969 538.453125 168.132812 C 537.0625 169.847656 532.546875 169.195312 530.515625 169.136719 C 526.308594 169.019531 522.101562 168.933594 517.886719 168.941406 C 509.613281 168.953125 501.339844 169.175781 493.066406 169.203125 C 477.632812 169.253906 462.195312 169.167969 446.761719 169.136719 L 354.148438 168.953125 C 345.667969 168.9375 337.1875 168.914062 328.703125 168.839844 C 320.753906 168.769531 310.242188 169.566406 303.550781 164.589844 C 300.738281 162.496094 301 158.320312 304.523438 157.140625 Z M 304.523438 157.140625 " fill-opacity="1" fill-rule="nonzero"/><path fill="#f0f0e4" d="M 366.152344 138.609375 C 368.03125 140.351562 369.417969 142.171875 369.210938 143.675781 C 368.867188 146.136719 365.617188 146.714844 363.136719 146.683594 C 333.867188 146.289062 304.597656 145.894531 275.328125 145.5 C 273.273438 145.472656 271.078125 145.398438 269.40625 144.207031 C 266.988281 142.480469 266.554688 139.125 266.335938 136.164062 C 265.445312 124.320312 264.511719 112.480469 263.671875 100.632812 C 263.128906 92.929688 263.785156 85.847656 272.710938 87.792969 C 283.851562 90.226562 352.371094 128.914062 358.242188 132.796875 C 359.757812 133.804688 363.460938 136.125 366.152344 138.609375 Z M 366.152344 138.609375 " fill-opacity="1" fill-rule="nonzero"/><path fill="#d8d8ca" d="M 237.46875 122.820312 C 246.496094 117.765625 256.613281 114.25 266.960938 114.316406 C 274.410156 114.363281 281.714844 116.253906 288.925781 118.132812 C 303.300781 121.875 317.679688 125.617188 332.054688 129.359375 C 315.273438 117.484375 296.664062 108.484375 278.15625 99.539062 C 275.996094 98.496094 273.753906 97.433594 271.359375 97.394531 C 268.566406 97.351562 265.960938 98.703125 263.5 100.023438 C 238.761719 113.296875 214.265625 127.03125 190.035156 141.21875 C 190.921875 140.699219 194.285156 141.476562 195.414062 141.503906 C 197.433594 141.554688 199.457031 141.542969 201.476562 141.46875 C 204.78125 141.347656 208.449219 141.359375 211.667969 140.511719 C 214.125 139.863281 215.964844 138.003906 217.910156 136.453125 C 220.800781 134.148438 223.722656 131.882812 226.726562 129.726562 C 230.1875 127.242188 233.753906 124.898438 237.46875 122.820312 Z M 237.46875 122.820312 " fill-opacity="1" fill-rule="nonzero"/><path fill="#f0f0e4" d="M 269.363281 156.460938 C 267.402344 156.511719 265.113281 156.40625 263.972656 154.8125 C 263.140625 153.640625 263.242188 152.074219 263.378906 150.644531 C 263.921875 145.042969 264.460938 139.441406 265.003906 133.839844 C 265.085938 132.964844 265.207031 132.015625 265.839844 131.402344 C 266.546875 130.71875 267.644531 130.699219 268.628906 130.722656 C 297.074219 131.40625 326.234375 133.074219 354.421875 137.101562 C 358.558594 137.691406 363.132812 138.730469 364.71875 143.101562 C 365.386719 144.9375 365.332031 146.988281 365.164062 148.902344 C 365.070312 149.925781 365.03125 151.296875 364.65625 152.257812 C 363.808594 154.4375 363.074219 154.023438 360.652344 154.078125 C 346.25 154.390625 331.847656 154.828125 317.441406 155.207031 C 301.417969 155.625 285.390625 156.042969 269.363281 156.460938 Z M 269.363281 156.460938 " fill-opacity="1" fill-rule="nonzero"/><path fill="#f0f0e4" d="M 359.511719 177.050781 C 359.417969 178.390625 359.199219 179.914062 358.074219 180.648438 C 357.335938 181.128906 356.394531 181.128906 355.515625 181.109375 C 325.355469 180.496094 295.199219 179.882812 265.039062 179.269531 C 263.023438 179.226562 260.847656 179.128906 259.28125 177.859375 C 257.285156 176.234375 257.019531 173.335938 256.914062 170.761719 C 256.613281 163.605469 256.308594 156.453125 256.007812 149.292969 C 255.917969 147.125 255.921875 144.6875 257.433594 143.125 C 258.929688 141.574219 261.339844 141.476562 263.492188 141.484375 C 292.679688 141.613281 321.859375 142.898438 350.945312 145.335938 C 352.777344 145.488281 354.671875 145.667969 356.273438 146.570312 C 360.425781 148.921875 359.777344 155.324219 359.890625 159.269531 C 360.066406 165.195312 359.941406 171.136719 359.511719 177.050781 Z M 359.511719 177.050781 " fill-opacity="1" fill-rule="nonzero"/><path fill="#f0f0e4" d="M 336.804688 214.285156 C 336.90625 208.765625 337.003906 203.246094 337.101562 197.726562 C 337.207031 191.957031 336.773438 185.910156 338.117188 180.210938 C 338.808594 177.292969 343.214844 175.382812 346.914062 175.722656 C 351.238281 176.121094 353.476562 178.445312 354.078125 181.503906 C 355.136719 186.855469 354.339844 192.640625 354.238281 198.054688 C 354.132812 203.574219 354.027344 209.09375 353.921875 214.617188 C 353.710938 225.65625 353.59375 236.699219 353.273438 247.738281 C 353.195312 250.386719 350.867188 253.324219 347.148438 253.972656 C 345.550781 254.253906 344.226562 254.34375 342.613281 254.058594 C 339.050781 253.433594 336.1875 250.824219 336.210938 248.070312 C 336.300781 236.808594 336.601562 225.546875 336.804688 214.285156 Z M 336.804688 214.285156 " fill-opacity="1" fill-rule="nonzero"/><path fill="#f0f0e4" d="M 283.824219 214.285156 C 283.921875 208.765625 284.023438 203.246094 284.121094 197.726562 C 284.226562 191.957031 283.789062 185.910156 285.136719 180.210938 C 285.828125 177.292969 290.230469 175.382812 293.933594 175.722656 C 298.257812 176.121094 300.492188 178.445312 301.097656 181.503906 C 302.152344 186.855469 301.359375 192.640625 301.253906 198.054688 C 301.148438 203.574219 301.042969 209.09375 300.9375 214.617188 C 300.726562 225.65625 300.613281 236.699219 300.292969 247.738281 C 300.214844 250.386719 297.882812 253.324219 294.167969 253.972656 C 292.566406 254.253906 291.246094 254.34375 289.632812 254.058594 C 286.070312 253.433594 283.207031 250.824219 283.230469 248.070312 C 283.320312 236.808594 283.621094 225.546875 283.824219 214.285156 Z M 283.824219 214.285156 " fill-opacity="1" fill-rule="nonzero"/><path fill="#f0f0e4" d="M 362.074219 252.609375 C 361.691406 263.523438 361.277344 274.46875 360.859375 285.382812 C 360.765625 287.878906 360.507812 290.726562 358.492188 292.230469 C 356.859375 293.445312 354.617188 293.125 352.570312 293.125 C 345.820312 293.160156 338.554688 293.222656 331.066406 293.320312 C 325.753906 293.351562 320.34375 293.414062 314.9375 293.480469 C 307.765625 293.542969 300.597656 293.605469 293.71875 293.605469 C 288.183594 293.605469 282.804688 293.574219 277.746094 293.480469 C 275.058594 293.445312 272.5 293.382812 270.003906 293.320312 C 267.15625 293.382812 264.179688 293.445312 261.074219 293.480469 L 261.042969 293.480469 C 255.988281 293.574219 250.640625 293.605469 245.136719 293.605469 C 238.226562 293.605469 231.054688 293.542969 223.917969 293.480469 C 218.480469 293.414062 213.039062 293.351562 207.726562 293.285156 C 200.652344 293.222656 193.804688 293.160156 187.40625 293.125 C 185.355469 293.125 183.148438 293.445312 181.515625 292.230469 C 179.5 290.726562 179.242188 287.878906 179.148438 285.382812 C 178.730469 274.46875 178.316406 263.523438 177.898438 252.609375 C 177.835938 250.628906 177.867188 248.417969 179.242188 246.976562 C 180.621094 245.570312 182.828125 245.507812 184.78125 245.507812 C 200.6875 245.601562 216.558594 245.699219 232.464844 245.792969 C 237.199219 245.828125 249.523438 245.953125 260.210938 245.984375 C 261.234375 245.859375 262.324219 245.828125 263.539062 245.859375 C 265.011719 245.921875 267.28125 245.953125 270.003906 245.984375 C 272.722656 245.953125 274.964844 245.921875 276.46875 245.859375 C 277.683594 245.828125 278.773438 245.859375 279.765625 245.984375 C 290.484375 245.953125 302.804688 245.828125 307.542969 245.792969 C 323.449219 245.699219 339.320312 245.601562 355.226562 245.507812 C 357.179688 245.507812 359.386719 245.570312 360.765625 246.976562 C 362.140625 248.417969 362.171875 250.628906 362.074219 252.609375 Z M 362.074219 252.609375 " fill-opacity="1" fill-rule="nonzero"/><path fill="#2a303a" d="M 478.644531 188.230469 C 478.777344 185.378906 495.335938 186.398438 495.984375 187.242188 C 496.328125 187.691406 496.324219 189.683594 496.347656 190.617188 C 496.378906 191.933594 496.414062 204.6875 496.230469 209.746094 C 496.203125 210.496094 496.148438 211.308594 495.660156 211.875 C 495.0625 212.574219 494.027344 212.664062 493.109375 212.691406 C 490.289062 212.773438 480.414062 213.429688 479.242188 211.933594 C 478.699219 211.238281 478.664062 210.289062 478.65625 209.40625 C 478.609375 203.722656 478.59375 189.328125 478.644531 188.230469 Z M 478.644531 188.230469 " fill-opacity="1" fill-rule="nonzero"/><path fill="#2a303a" d="M 443.664062 188.230469 C 443.796875 185.378906 460.355469 186.398438 461.003906 187.242188 C 461.351562 187.691406 461.34375 189.683594 461.367188 190.617188 C 461.398438 191.933594 461.4375 204.6875 461.25 209.746094 C 461.222656 210.496094 461.167969 211.308594 460.679688 211.875 C 460.082031 212.574219 459.050781 212.664062 458.128906 212.691406 C 455.3125 212.773438 445.4375 213.429688 444.261719 211.933594 C 443.71875 211.238281 443.683594 210.289062 443.679688 209.40625 C 443.628906 203.722656 443.613281 189.328125 443.664062 188.230469 Z M 443.664062 188.230469 " fill-opacity="1" fill-rule="nonzero"/><path fill="#2a303a" d="M 408.6875 188.230469 C 408.820312 185.378906 425.378906 186.398438 426.027344 187.242188 C 426.371094 187.691406 426.367188 189.683594 426.390625 190.617188 C 426.421875 191.933594 426.457031 204.6875 426.269531 209.746094 C 426.242188 210.496094 426.191406 211.308594 425.703125 211.875 C 425.101562 212.574219 424.070312 212.664062 423.152344 212.691406 C 420.332031 212.773438 410.457031 213.429688 409.28125 211.933594 C 408.742188 211.238281 408.707031 210.289062 408.699219 209.40625 C 408.652344 203.722656 408.636719 189.328125 408.6875 188.230469 Z M 408.6875 188.230469 " fill-opacity="1" fill-rule="nonzero"/><path fill="#2a303a" d="M 373.707031 188.230469 C 373.839844 185.378906 390.398438 186.398438 391.046875 187.242188 C 391.394531 187.691406 391.386719 189.683594 391.410156 190.617188 C 391.441406 191.933594 391.476562 204.6875 391.292969 209.746094 C 391.265625 210.496094 391.210938 211.308594 390.722656 211.875 C 390.125 212.574219 389.09375 212.664062 388.171875 212.691406 C 385.355469 212.773438 375.480469 213.429688 374.304688 211.933594 C 373.761719 211.238281 373.726562 210.289062 373.71875 209.40625 C 373.675781 203.722656 373.65625 189.328125 373.707031 188.230469 Z M 373.707031 188.230469 " fill-opacity="1" fill-rule="nonzero"/><path fill="#2a303a" d="M 478.644531 231.523438 C 478.777344 228.671875 495.335938 229.695312 495.984375 230.535156 C 496.328125 230.988281 496.324219 232.976562 496.347656 233.914062 C 496.378906 235.230469 496.414062 247.984375 496.230469 253.042969 C 496.203125 253.792969 496.148438 254.601562 495.660156 255.171875 C 495.0625 255.871094 494.027344 255.960938 493.109375 255.988281 C 490.289062 256.070312 480.414062 256.726562 479.242188 255.226562 C 478.699219 254.535156 478.664062 253.582031 478.65625 252.703125 C 478.609375 247.019531 478.59375 232.625 478.644531 231.523438 Z M 478.644531 231.523438 " fill-opacity="1" fill-rule="nonzero"/><path fill="#2a303a" d="M 443.664062 231.523438 C 443.796875 228.671875 460.355469 229.695312 461.003906 230.535156 C 461.351562 230.988281 461.34375 232.976562 461.367188 233.914062 C 461.398438 235.230469 461.4375 247.984375 461.25 253.042969 C 461.222656 253.792969 461.167969 254.601562 460.679688 255.171875 C 460.082031 255.871094 459.050781 255.960938 458.128906 255.988281 C 455.3125 256.070312 445.4375 256.726562 444.261719 255.226562 C 443.71875 254.535156 443.683594 253.582031 443.679688 252.703125 C 443.628906 247.019531 443.613281 232.625 443.664062 231.523438 Z M 443.664062 231.523438 " fill-opacity="1" fill-rule="nonzero"/><path fill="#2a303a" d="M 405.382812 231.523438 C 405.515625 228.671875 422.074219 229.695312 422.722656 230.535156 C 423.070312 230.988281 423.0625 232.976562 423.085938 233.914062 C 423.121094 235.230469 423.15625 247.984375 422.96875 253.042969 C 422.941406 253.792969 422.886719 254.601562 422.398438 255.171875 C 421.800781 255.871094 420.769531 255.960938 419.847656 255.988281 C 417.03125 256.070312 407.15625 256.726562 405.980469 255.226562 C 405.4375 254.535156 405.402344 253.582031 405.398438 252.703125 C 405.351562 247.019531 405.332031 232.625 405.382812 231.523438 Z M 405.382812 231.523438 " fill-opacity="1" fill-rule="nonzero"/><path fill="#2a303a" d="M 373.707031 231.523438 C 373.839844 228.671875 390.398438 229.695312 391.046875 230.535156 C 391.394531 230.988281 391.386719 232.976562 391.410156 233.914062 C 391.441406 235.230469 391.476562 247.984375 391.292969 253.042969 C 391.265625 253.792969 391.210938 254.601562 390.722656 255.171875 C 390.125 255.871094 389.09375 255.960938 388.171875 255.988281 C 385.355469 256.070312 375.480469 256.726562 374.304688 255.226562 C 373.761719 254.535156 373.726562 253.582031 373.71875 252.703125 C 373.675781 247.019531 373.65625 232.625 373.707031 231.523438 Z M 373.707031 231.523438 " fill-opacity="1" fill-rule="nonzero"/><path fill="#2a303a" d="M 478.644531 274.820312 C 478.777344 271.96875 495.335938 272.992188 495.984375 273.832031 C 496.328125 274.28125 496.324219 276.273438 496.347656 277.207031 C 496.378906 278.523438 496.414062 291.277344 496.230469 296.335938 C 496.203125 297.085938 496.148438 297.898438 495.660156 298.46875 C 495.0625 299.167969 494.027344 299.253906 493.109375 299.28125 C 490.289062 299.363281 480.414062 300.019531 479.242188 298.523438 C 478.699219 297.832031 478.664062 296.878906 478.65625 296 C 478.609375 290.3125 478.59375 275.921875 478.644531 274.820312 Z M 478.644531 274.820312 " fill-opacity="1" fill-rule="nonzero"/><path fill="#2a303a" d="M 443.664062 274.820312 C 443.796875 271.96875 460.355469 272.992188 461.003906 273.832031 C 461.351562 274.28125 461.34375 276.273438 461.367188 277.207031 C 461.398438 278.523438 461.4375 291.277344 461.25 296.335938 C 461.222656 297.085938 461.167969 297.898438 460.679688 298.46875 C 460.082031 299.167969 459.050781 299.253906 458.128906 299.28125 C 455.3125 299.363281 445.4375 300.019531 444.261719 298.523438 C 443.71875 297.832031 443.683594 296.878906 443.679688 296 C 443.628906 290.3125 443.613281 275.921875 443.664062 274.820312 Z M 443.664062 274.820312 " fill-opacity="1" fill-rule="nonzero"/><path fill="#2a303a" d="M 408.6875 274.820312 C 408.820312 271.96875 425.378906 272.992188 426.027344 273.832031 C 426.371094 274.28125 426.367188 276.273438 426.390625 277.207031 C 426.421875 278.523438 426.457031 291.277344 426.269531 296.335938 C 426.242188 297.085938 426.191406 297.898438 425.703125 298.46875 C 425.101562 299.167969 424.070312 299.253906 423.152344 299.28125 C 420.332031 299.363281 410.457031 300.019531 409.28125 298.523438 C 408.742188 297.832031 408.707031 296.878906 408.699219 296 C 408.652344 290.3125 408.636719 275.921875 408.6875 274.820312 Z M 408.6875 274.820312 " fill-opacity="1" fill-rule="nonzero"/><path fill="#2a303a" d="M 373.707031 274.820312 C 373.839844 271.96875 390.398438 272.992188 391.046875 273.832031 C 391.394531 274.28125 391.386719 276.273438 391.410156 277.207031 C 391.441406 278.523438 391.476562 291.277344 391.292969 296.335938 C 391.265625 297.085938 391.210938 297.898438 390.722656 298.46875 C 390.125 299.167969 389.09375 299.253906 388.171875 299.28125 C 385.355469 299.363281 375.480469 300.019531 374.304688 298.523438 C 373.761719 297.832031 373.726562 296.878906 373.71875 296 C 373.675781 290.3125 373.65625 275.921875 373.707031 274.820312 Z M 373.707031 274.820312 " fill-opacity="1" fill-rule="nonzero"/><path fill="#2a303a" d="M 181.347656 146.929688 C 180.9375 146.929688 180.535156 146.71875 180.3125 146.335938 C 179.976562 145.761719 180.171875 145.027344 180.746094 144.695312 C 194.777344 136.527344 210.71875 127.941406 226.140625 119.636719 C 241.535156 111.34375 257.453125 102.769531 271.4375 94.632812 C 272.007812 94.300781 272.746094 94.492188 273.078125 95.066406 C 273.414062 95.636719 273.214844 96.371094 272.644531 96.707031 C 258.625 104.863281 242.6875 113.449219 227.277344 121.746094 C 211.875 130.042969 195.945312 138.625 181.953125 146.769531 C 181.761719 146.878906 181.554688 146.929688 181.347656 146.929688 Z M 181.347656 146.929688 " fill-opacity="1" fill-rule="nonzero"/><path fill="#2a303a" d="M 333.179688 130.898438 C 332.960938 130.898438 332.746094 130.84375 332.550781 130.722656 C 313.097656 118.824219 292.636719 108.203125 271.734375 99.144531 C 271.128906 98.882812 270.847656 98.175781 271.113281 97.566406 C 271.375 96.960938 272.085938 96.683594 272.691406 96.941406 C 293.691406 106.042969 314.253906 116.71875 333.804688 128.675781 C 334.367188 129.019531 334.546875 129.757812 334.203125 130.324219 C 333.972656 130.695312 333.582031 130.898438 333.179688 130.898438 Z M 333.179688 130.898438 " fill-opacity="1" fill-rule="nonzero"/><path fill="#2a303a" d="M 362.546875 143.058594 C 334.332031 143.03125 305.246094 143.023438 276.152344 143.015625 C 246.550781 143.007812 216.941406 143 188.242188 142.96875 C 187.582031 142.96875 187.042969 142.429688 187.042969 141.765625 C 187.042969 141.105469 187.582031 140.570312 188.242188 140.570312 C 216.945312 140.597656 246.550781 140.609375 276.152344 140.613281 C 305.246094 140.621094 334.335938 140.628906 362.546875 140.660156 C 363.207031 140.660156 363.746094 141.199219 363.746094 141.859375 C 363.746094 142.523438 363.207031 143.058594 362.546875 143.058594 Z M 362.546875 143.058594 " fill-opacity="1" fill-rule="nonzero"/><path fill="#2a303a" d="M 185.226562 155.484375 C 184.582031 155.484375 184.050781 154.972656 184.027344 154.324219 C 184.003906 153.660156 184.523438 153.105469 185.1875 153.082031 C 220.023438 151.914062 254.90625 152.300781 288.636719 152.679688 C 310.175781 152.921875 332.457031 153.167969 354.613281 153.015625 C 355.300781 153.0625 355.820312 153.542969 355.824219 154.207031 C 355.828125 154.871094 355.296875 155.410156 354.632812 155.414062 C 332.441406 155.566406 310.160156 155.320312 288.613281 155.078125 C 254.898438 154.699219 220.035156 154.308594 185.269531 155.484375 C 185.253906 155.484375 185.238281 155.484375 185.226562 155.484375 Z M 185.226562 155.484375 " fill-opacity="1" fill-rule="nonzero"/><path fill="#2a303a" d="M 189.609375 181.253906 C 188.992188 181.253906 188.464844 180.78125 188.414062 180.15625 C 188.355469 179.496094 188.847656 178.914062 189.507812 178.859375 L 201.003906 177.878906 C 201.710938 177.804688 202.246094 178.316406 202.304688 178.972656 C 202.359375 179.632812 201.871094 180.214844 201.210938 180.269531 L 189.710938 181.25 C 189.679688 181.253906 189.640625 181.253906 189.609375 181.253906 Z M 189.609375 181.253906 " fill-opacity="1" fill-rule="nonzero"/><path fill="#2a303a" d="M 252.71875 180.769531 L 239.996094 180.769531 C 239.335938 180.769531 238.796875 180.230469 238.796875 179.570312 C 238.796875 178.90625 239.335938 178.367188 239.996094 178.367188 L 252.71875 178.367188 C 253.378906 178.367188 253.917969 178.90625 253.917969 179.570312 C 253.917969 180.230469 253.378906 180.769531 252.71875 180.769531 Z M 252.71875 180.769531 " fill-opacity="1" fill-rule="nonzero"/><path fill="#2a303a" d="M 300.664062 180.769531 L 288.921875 180.769531 C 288.257812 180.769531 287.722656 180.230469 287.722656 179.570312 C 287.722656 178.90625 288.257812 178.367188 288.921875 178.367188 L 300.664062 178.367188 C 301.324219 178.367188 301.863281 178.90625 301.863281 179.570312 C 301.863281 180.230469 301.324219 180.769531 300.664062 180.769531 Z M 300.664062 180.769531 " fill-opacity="1" fill-rule="nonzero"/><path fill="#2a303a" d="M 350.058594 182.628906 C 350.015625 182.628906 349.972656 182.625 349.925781 182.621094 L 340.421875 181.589844 C 339.761719 181.515625 339.285156 180.925781 339.355469 180.265625 C 339.429688 179.609375 339.976562 179.117188 340.679688 179.203125 L 350.1875 180.238281 C 350.84375 180.304688 351.324219 180.898438 351.25 181.558594 C 351.183594 182.171875 350.664062 182.628906 350.058594 182.628906 Z M 350.058594 182.628906 " fill-opacity="1" fill-rule="nonzero"/><path fill="#2a303a" d="M 350.0625 246.945312 C 350.054688 246.945312 350.042969 246.945312 350.03125 246.945312 C 296.988281 245.546875 243.191406 245.417969 190.117188 246.554688 C 189.46875 246.589844 188.910156 246.042969 188.894531 245.378906 C 188.882812 244.71875 189.40625 244.167969 190.070312 244.15625 C 243.175781 243.019531 297.015625 243.148438 350.09375 244.546875 C 350.757812 244.5625 351.28125 245.117188 351.265625 245.777344 C 351.246094 246.429688 350.714844 246.945312 350.0625 246.945312 Z M 350.0625 246.945312 " fill-opacity="1" fill-rule="nonzero"/><path fill="#2a303a" d="M 192.613281 246.566406 C 191.976562 246.566406 191.445312 246.066406 191.414062 245.421875 C 190.46875 226.089844 190.257812 206.472656 190.773438 187.117188 C 190.792969 186.453125 191.277344 185.929688 192.003906 185.949219 C 192.667969 185.96875 193.195312 186.519531 193.175781 187.183594 C 192.65625 206.476562 192.867188 226.035156 193.8125 245.308594 C 193.84375 245.96875 193.335938 246.53125 192.671875 246.5625 C 192.648438 246.566406 192.632812 246.566406 192.613281 246.566406 Z M 192.613281 246.566406 " fill-opacity="1" fill-rule="nonzero"/><path fill="#2a303a" d="M 246.015625 245.863281 C 245.398438 245.863281 244.871094 245.394531 244.820312 244.769531 C 243.054688 225.003906 242.503906 204.941406 243.175781 185.152344 C 243.199219 184.492188 243.777344 183.953125 244.417969 183.992188 C 245.078125 184.019531 245.597656 184.570312 245.578125 185.234375 C 244.90625 204.925781 245.453125 224.886719 247.207031 244.558594 C 247.265625 245.21875 246.78125 245.800781 246.121094 245.859375 C 246.085938 245.863281 246.046875 245.863281 246.015625 245.863281 Z M 246.015625 245.863281 " fill-opacity="1" fill-rule="nonzero"/><path fill="#2a303a" d="M 289.78125 245.863281 C 289.773438 245.863281 289.765625 245.863281 289.753906 245.863281 C 289.09375 245.851562 288.566406 245.304688 288.582031 244.640625 C 288.765625 235.132812 289.109375 225.648438 289.441406 216.476562 C 289.769531 207.3125 290.113281 197.839844 290.300781 188.347656 C 290.3125 187.695312 290.847656 187.171875 291.5 187.171875 C 291.503906 187.171875 291.515625 187.171875 291.523438 187.171875 C 292.1875 187.1875 292.710938 187.734375 292.699219 188.394531 C 292.511719 197.90625 292.171875 207.390625 291.839844 216.5625 C 291.507812 225.722656 291.167969 235.199219 290.980469 244.6875 C 290.96875 245.34375 290.433594 245.863281 289.78125 245.863281 Z M 289.78125 245.863281 " fill-opacity="1" fill-rule="nonzero"/><path fill="#2a303a" d="M 339.332031 246.308594 C 339.304688 246.308594 339.273438 246.304688 339.246094 246.304688 C 338.585938 246.257812 338.085938 245.683594 338.132812 245.023438 L 342.164062 188.074219 C 342.210938 187.410156 342.789062 186.933594 343.445312 186.960938 C 344.105469 187.007812 344.605469 187.582031 344.558594 188.242188 L 340.527344 245.191406 C 340.484375 245.824219 339.957031 246.308594 339.332031 246.308594 Z M 339.332031 246.308594 " fill-opacity="1" fill-rule="nonzero"/><path fill="#2a303a" d="M 197.085938 285.960938 C 196.46875 285.960938 195.945312 285.488281 195.886719 284.867188 C 194.992188 274.679688 194.648438 264.347656 194.878906 254.148438 C 194.894531 253.488281 195.492188 252.945312 196.105469 252.976562 C 196.769531 252.992188 197.292969 253.539062 197.277344 254.203125 C 197.054688 264.3125 197.386719 274.554688 198.28125 284.652344 C 198.339844 285.3125 197.851562 285.898438 197.191406 285.953125 C 197.152344 285.957031 197.117188 285.960938 197.085938 285.960938 Z M 197.085938 285.960938 " fill-opacity="1" fill-rule="nonzero"/><path fill="#2a303a" d="M 340.863281 280.820312 C 340.21875 280.820312 339.6875 280.308594 339.664062 279.660156 L 338.808594 255.683594 C 338.789062 255.023438 339.304688 254.46875 339.964844 254.441406 C 340.742188 254.421875 341.183594 254.941406 341.210938 255.601562 L 342.0625 279.578125 C 342.085938 280.238281 341.570312 280.796875 340.90625 280.820312 C 340.890625 280.820312 340.875 280.820312 340.863281 280.820312 Z M 340.863281 280.820312 " fill-opacity="1" fill-rule="nonzero"/><path fill="#2a303a" d="M 224.71875 270.5625 C 224.6875 276.835938 224.6875 283.140625 224.65625 289.445312 C 224.65625 290.757812 224.625 292.199219 224.078125 293.253906 C 224.046875 293.320312 223.984375 293.414062 223.917969 293.480469 C 218.480469 293.414062 213.039062 293.351562 207.726562 293.285156 C 207.695312 293.253906 207.695312 293.222656 207.664062 293.191406 C 207.183594 292.328125 207.117188 291.078125 207.085938 289.957031 C 206.925781 283.71875 206.957031 277.476562 206.957031 271.238281 C 206.957031 268.515625 207.085938 265.765625 206.957031 263.074219 C 206.765625 259.394531 208.398438 256.484375 211.757812 254.59375 C 214.253906 253.15625 217.453125 252.867188 220.109375 254.019531 C 221.96875 254.820312 223.152344 256.097656 223.886719 257.636719 C 225.617188 261.347656 224.71875 266.5625 224.71875 270.5625 Z M 224.71875 270.5625 " fill-opacity="1" fill-rule="nonzero"/><path fill="#2a303a" d="M 261.84375 270.5625 C 261.84375 276.835938 261.84375 283.140625 261.8125 289.445312 C 261.8125 290.757812 261.777344 292.199219 261.234375 293.253906 C 261.203125 293.320312 261.140625 293.414062 261.074219 293.480469 L 261.042969 293.480469 C 255.988281 293.574219 250.640625 293.605469 245.136719 293.605469 C 245.007812 293.480469 244.914062 293.351562 244.816406 293.191406 C 244.335938 292.328125 244.273438 291.078125 244.242188 289.957031 C 244.082031 283.71875 244.113281 277.476562 244.113281 271.238281 C 244.113281 268.515625 244.242188 265.765625 244.113281 263.074219 C 243.921875 259.394531 245.554688 256.484375 248.914062 254.59375 C 251.410156 253.15625 254.609375 252.867188 257.265625 254.019531 C 259.121094 254.820312 260.308594 256.097656 261.042969 257.636719 C 262.769531 261.347656 261.875 266.5625 261.84375 270.5625 Z M 261.84375 270.5625 " fill-opacity="1" fill-rule="nonzero"/><path fill="#2a303a" d="M 331.898438 271.238281 C 331.863281 277.476562 331.898438 283.71875 331.738281 289.957031 C 331.703125 291.078125 331.640625 292.328125 331.160156 293.191406 C 331.128906 293.222656 331.097656 293.285156 331.066406 293.320312 C 325.753906 293.351562 320.34375 293.414062 314.9375 293.480469 C 314.839844 293.414062 314.777344 293.320312 314.742188 293.253906 C 314.199219 292.199219 314.167969 290.757812 314.167969 289.445312 C 314.136719 283.140625 314.136719 276.835938 314.136719 270.566406 C 314.136719 266.5625 313.207031 261.347656 314.9375 257.636719 C 315.671875 256.097656 316.855469 254.820312 318.742188 254.019531 C 321.367188 252.867188 324.566406 253.15625 327.0625 254.59375 C 330.425781 256.484375 332.054688 259.394531 331.863281 263.074219 C 331.738281 265.765625 331.898438 268.515625 331.898438 271.238281 Z M 331.898438 271.238281 " fill-opacity="1" fill-rule="nonzero"/><path fill="#2a303a" d="M 294.742188 271.238281 C 294.710938 277.476562 294.742188 283.71875 294.582031 289.957031 C 294.550781 291.078125 294.519531 292.328125 294.003906 293.191406 C 293.910156 293.351562 293.8125 293.480469 293.71875 293.605469 C 288.183594 293.605469 282.804688 293.574219 277.746094 293.480469 C 277.683594 293.414062 277.621094 293.320312 277.589844 293.253906 C 277.042969 292.199219 277.011719 290.757812 277.011719 289.445312 C 276.980469 283.140625 276.980469 276.835938 276.980469 270.5625 C 276.980469 266.5625 276.085938 261.347656 277.78125 257.636719 C 278.515625 256.097656 279.699219 254.820312 281.589844 254.019531 C 284.214844 252.867188 287.414062 253.15625 289.910156 254.59375 C 293.269531 256.484375 294.902344 259.394531 294.710938 263.074219 C 294.582031 265.765625 294.742188 268.515625 294.742188 271.238281 Z M 294.742188 271.238281 " fill-opacity="1" fill-rule="nonzero"/><path fill="#2a303a" d="M 214.832031 301.785156 C 207.75 301.785156 201.402344 301.78125 196.011719 301.773438 C 195.347656 301.773438 194.808594 301.238281 194.808594 300.574219 C 194.808594 299.910156 195.347656 299.375 196.011719 299.375 C 228.597656 299.402344 296.386719 299.449219 345.386719 298.296875 C 346.085938 298.355469 346.601562 298.804688 346.617188 299.46875 C 346.632812 300.128906 346.105469 300.679688 345.445312 300.695312 C 304.527344 301.660156 250.519531 301.785156 214.832031 301.785156 Z M 214.832031 301.785156 " fill-opacity="1" fill-rule="nonzero"/><path fill="#2a303a" d="M 210.554688 308.039062 C 203.335938 308.039062 196.84375 308.035156 191.3125 308.03125 C 190.648438 308.03125 190.113281 307.496094 190.113281 306.832031 C 190.113281 306.171875 190.648438 305.632812 191.3125 305.632812 C 225.664062 305.640625 297.09375 305.671875 348.660156 305.035156 C 349.339844 305.121094 349.867188 305.554688 349.875 306.21875 C 349.886719 306.882812 349.355469 307.425781 348.691406 307.433594 C 305.414062 307.96875 248.152344 308.039062 210.554688 308.039062 Z M 210.554688 308.039062 " fill-opacity="1" fill-rule="nonzero"/><path fill="#2a303a" d="M 355.453125 314.230469 L 183.097656 314.230469 C 182.4375 314.230469 181.898438 313.695312 181.898438 313.03125 C 181.898438 312.367188 182.4375 311.832031 183.097656 311.832031 L 355.453125 311.832031 C 356.117188 311.832031 356.65625 312.367188 356.65625 313.03125 C 356.65625 313.695312 356.117188 314.230469 355.453125 314.230469 Z M 355.453125 314.230469 " fill-opacity="1" fill-rule="nonzero"/><path fill="#2a303a" d="M 199.546875 321.027344 C 191.136719 321.027344 183.582031 321.027344 177.140625 321.023438 C 176.476562 321.023438 175.9375 320.488281 175.9375 319.824219 C 175.9375 319.160156 176.476562 318.625 177.140625 318.625 C 217.097656 318.640625 300.195312 318.667969 359.96875 318.027344 C 359.96875 318.027344 359.976562 318.027344 359.980469 318.027344 C 360.636719 318.027344 361.171875 318.554688 361.179688 319.214844 C 361.1875 319.875 360.65625 320.417969 359.992188 320.425781 C 309.847656 320.960938 243.277344 321.027344 199.546875 321.027344 Z M 199.546875 321.027344 " fill-opacity="1" fill-rule="nonzero"/><path fill="#2a303a" d="M 363.425781 327.523438 C 363.421875 327.523438 363.417969 327.523438 363.414062 327.523438 C 300.539062 326.882812 213.886719 326.914062 172.25 326.925781 C 171.589844 326.925781 171.050781 326.390625 171.050781 325.726562 C 171.050781 325.0625 171.589844 324.527344 172.25 324.527344 C 213.878906 324.507812 300.542969 324.480469 363.441406 325.125 C 364.101562 325.132812 364.632812 325.675781 364.628906 326.335938 C 364.621094 326.996094 364.082031 327.523438 363.425781 327.523438 Z M 363.425781 327.523438 " fill-opacity="1" fill-rule="nonzero"/><path fill="#2a303a" d="M 58.765625 170.792969 C 48.160156 170.792969 37.519531 170.730469 26.914062 170.550781 C 26.25 170.542969 25.722656 169.996094 25.734375 169.332031 C 25.742188 168.667969 26.214844 168.183594 26.953125 168.152344 C 52.703125 168.578125 78.703125 168.347656 103.851562 168.128906 C 129.007812 167.90625 155.023438 167.675781 180.804688 168.105469 C 181.46875 168.117188 181.996094 168.664062 181.988281 169.328125 C 181.972656 169.988281 181.511719 170.492188 180.769531 170.507812 C 155.007812 170.078125 129.011719 170.308594 103.871094 170.527344 C 89.058594 170.660156 73.949219 170.792969 58.765625 170.792969 Z M 58.765625 170.792969 " fill-opacity="1" fill-rule="nonzero"/><path fill="#2a303a" d="M 181.0625 180.28125 C 181.039062 180.28125 181.015625 180.28125 180.996094 180.277344 C 180.332031 180.242188 179.828125 179.675781 179.863281 179.011719 C 180.195312 173.050781 180.105469 167.019531 179.589844 161.082031 C 179.53125 160.421875 180.023438 159.84375 180.683594 159.785156 C 181.3125 159.71875 181.925781 160.214844 181.984375 160.875 C 182.503906 166.921875 182.597656 173.070312 182.257812 179.148438 C 182.222656 179.785156 181.695312 180.28125 181.0625 180.28125 Z M 181.0625 180.28125 " fill-opacity="1" fill-rule="nonzero"/><path fill="#2a303a" d="M 367.683594 170.140625 C 367.023438 170.140625 366.488281 169.605469 366.484375 168.945312 C 366.480469 168.285156 367.015625 167.742188 367.675781 167.738281 L 514.195312 166.980469 C 514.976562 166.976562 515.398438 167.507812 515.402344 168.175781 C 515.40625 168.835938 514.871094 169.378906 514.207031 169.378906 L 367.691406 170.140625 C 367.6875 170.140625 367.6875 170.140625 367.683594 170.140625 Z M 367.683594 170.140625 " fill-opacity="1" fill-rule="nonzero"/><path fill="#2a303a" d="M 98.496094 220.839844 C 62.300781 220.839844 40.320312 220.601562 27.171875 220.347656 C 26.511719 220.335938 25.984375 219.789062 25.996094 219.125 C 26.007812 218.460938 26.523438 217.960938 27.21875 217.949219 C 47.890625 218.347656 90.457031 218.707031 175.808594 218.164062 C 178.203125 218.148438 179.707031 218.140625 180.648438 218.195312 C 180.753906 218.160156 180.867188 218.140625 180.984375 218.132812 L 180.988281 218.21875 C 182.21875 218.335938 182.222656 218.625 182.238281 219.308594 C 182.25 219.964844 181.71875 220.511719 181.066406 220.535156 C 181.023438 220.535156 180.992188 220.535156 180.957031 220.53125 C 180.515625 220.554688 178.796875 220.542969 175.824219 220.5625 C 144.703125 220.761719 119.257812 220.839844 98.496094 220.839844 Z M 98.496094 220.839844 " fill-opacity="1" fill-rule="nonzero"/><path fill="#2a303a" d="M 88.003906 267.363281 C 60.035156 267.363281 41.355469 267.152344 29.234375 266.917969 C 28.574219 266.90625 28.046875 266.359375 28.058594 265.695312 C 28.070312 265.035156 28.640625 264.496094 29.28125 264.519531 C 50.28125 264.921875 90.992188 265.253906 165.679688 264.550781 C 167.230469 264.539062 168.292969 264.523438 169.003906 264.558594 C 169.089844 264.539062 169.175781 264.523438 169.265625 264.519531 L 169.269531 264.574219 C 170.5 264.664062 170.507812 264.9375 170.523438 265.695312 C 170.535156 266.351562 170.003906 266.898438 169.347656 266.917969 C 169.308594 266.917969 169.28125 266.921875 169.246094 266.917969 C 168.964844 266.917969 167.734375 266.929688 165.703125 266.949219 C 134.074219 267.25 108.535156 267.363281 88.003906 267.363281 Z M 88.003906 267.363281 " fill-opacity="1" fill-rule="nonzero"/><path fill="#2a303a" d="M 400.175781 223.835938 C 388.933594 223.835938 377.507812 223.738281 365.6875 223.5 C 365.023438 223.484375 364.5 222.9375 364.511719 222.273438 C 364.523438 221.621094 365.058594 221.097656 365.710938 221.097656 C 365.71875 221.097656 365.726562 221.097656 365.738281 221.097656 C 401.777344 221.835938 434.253906 221.230469 468.632812 220.597656 C 483.445312 220.324219 498.4375 220.046875 513.941406 219.878906 C 514.675781 219.769531 515.148438 220.402344 515.152344 221.066406 C 515.160156 221.730469 514.628906 222.269531 513.964844 222.277344 C 498.464844 222.449219 483.484375 222.726562 468.675781 222.996094 C 445.539062 223.425781 423.261719 223.835938 400.175781 223.835938 Z M 400.175781 223.835938 " fill-opacity="1" fill-rule="nonzero"/><path fill="#2a303a" d="M 480.375 265.984375 C 466.8125 265.984375 453.285156 265.851562 440.019531 265.71875 C 417.117188 265.488281 393.429688 265.253906 370.148438 265.71875 C 370.140625 265.71875 370.132812 265.71875 370.125 265.71875 C 369.472656 265.71875 368.9375 265.195312 368.925781 264.542969 C 368.914062 263.878906 369.4375 263.332031 370.097656 263.316406 C 393.414062 262.855469 417.121094 263.089844 440.042969 263.316406 C 462.941406 263.546875 486.625 263.78125 509.90625 263.316406 C 509.917969 263.316406 509.925781 263.316406 509.933594 263.316406 C 510.585938 263.316406 511.121094 263.839844 511.132812 264.496094 C 511.144531 265.15625 510.621094 265.703125 509.957031 265.71875 C 500.136719 265.914062 490.242188 265.984375 480.375 265.984375 Z M 480.375 265.984375 " fill-opacity="1" fill-rule="nonzero"/><path fill="#2a303a" d="M 188.574219 294.140625 C 188.003906 294.140625 187.542969 293.679688 187.539062 293.105469 C 187.53125 292.535156 187.996094 292.066406 188.570312 292.066406 C 215.238281 291.882812 243.035156 291.835938 269.921875 291.792969 C 296.800781 291.75 324.59375 291.703125 351.257812 291.523438 L 351.265625 291.523438 C 351.832031 291.523438 352.300781 291.980469 352.300781 292.554688 C 352.308594 293.128906 351.84375 293.59375 351.269531 293.597656 C 324.605469 293.78125 296.808594 293.824219 269.921875 293.867188 C 243.042969 293.914062 215.246094 293.957031 188.582031 294.140625 C 188.582031 294.140625 188.578125 294.140625 188.574219 294.140625 Z M 188.574219 294.140625 " fill-opacity="1" fill-rule="nonzero"/><path fill="#2a303a" d="M 167.511719 319.757812 C 167.285156 319.757812 167.050781 319.683594 166.859375 319.527344 C 166.414062 319.167969 166.34375 318.515625 166.703125 318.070312 L 186.839844 293.066406 C 187.203125 292.621094 187.847656 292.542969 188.300781 292.910156 C 188.746094 293.269531 188.816406 293.925781 188.457031 294.371094 L 168.320312 319.371094 C 168.113281 319.625 167.816406 319.757812 167.511719 319.757812 Z M 167.511719 319.757812 " fill-opacity="1" fill-rule="nonzero"/><path fill="#f5e37d" d="M 255.6875 114.664062 C 255.238281 115.386719 254.890625 116.144531 254.667969 116.929688 C 253.246094 121.957031 254.609375 127.710938 258.183594 131.53125 C 262.332031 135.972656 269.148438 137.625 274.9375 135.761719 C 279.496094 134.296875 283.386719 130.714844 284.96875 126.195312 C 287.148438 119.960938 284.105469 112.933594 278.71875 109.351562 C 275.621094 107.292969 271.753906 106.417969 268.074219 106.96875 C 267.742188 107.019531 267.414062 107.078125 267.085938 107.152344 C 263.097656 108.023438 258.027344 110.878906 255.6875 114.664062 Z M 255.6875 114.664062 " fill-opacity="1" fill-rule="nonzero"/><path fill="#f0f0e4" d="M 257.949219 123.753906 C 258.570312 126.6875 260.460938 129.300781 262.972656 130.941406 C 265.828125 132.8125 269.476562 133.429688 272.789062 132.601562 C 276.101562 131.773438 279.03125 129.515625 280.671875 126.519531 C 282.1875 123.753906 282.574219 120.273438 281.238281 117.410156 C 280.363281 115.535156 278.824219 114.03125 277.101562 112.882812 C 272.820312 110.027344 267.640625 109.324219 263.226562 112.203125 C 259.441406 114.675781 256.984375 119.195312 257.949219 123.753906 Z M 257.949219 123.753906 " fill-opacity="1" fill-rule="nonzero"/><path fill="#2a303a" d="M 269.9375 138.570312 C 267.730469 138.570312 265.527344 138.25 263.367188 137.617188 C 260.632812 136.808594 258.421875 135.585938 256.785156 133.988281 C 255.261719 132.496094 254.042969 130.488281 253.167969 128.003906 C 251.855469 124.292969 251.613281 120.558594 252.476562 117.199219 C 254.648438 108.738281 263.710938 104.734375 271.136719 105.1875 C 276.820312 105.5625 282.074219 108.4375 285.191406 112.867188 C 288.484375 117.554688 289.113281 123.800781 286.804688 128.773438 C 285.460938 131.667969 283.109375 134.203125 280.1875 135.914062 C 277.476562 137.5 274.261719 138.410156 270.894531 138.550781 C 270.574219 138.566406 270.257812 138.570312 269.9375 138.570312 Z M 269.890625 107.519531 C 263.648438 107.519531 256.523438 110.96875 254.773438 117.789062 C 254.03125 120.6875 254.25 123.945312 255.402344 127.210938 C 256.160156 129.347656 257.183594 131.058594 258.441406 132.289062 C 259.800781 133.617188 261.683594 134.644531 264.039062 135.339844 C 266.257812 135.992188 268.527344 136.289062 270.792969 136.179688 C 273.777344 136.058594 276.613281 135.257812 278.988281 133.867188 C 281.496094 132.398438 283.507812 130.234375 284.648438 127.773438 C 286.613281 123.554688 286.0625 118.238281 283.246094 114.230469 C 280.542969 110.378906 275.957031 107.886719 270.980469 107.558594 C 270.621094 107.53125 270.257812 107.519531 269.890625 107.519531 Z M 269.890625 107.519531 " fill-opacity="1" fill-rule="nonzero"/><path fill="#2a303a" d="M 269.964844 133.558594 C 267.253906 133.558594 264.503906 132.589844 262.339844 130.820312 C 259.808594 128.746094 258.101562 125.621094 257.65625 122.242188 C 257.570312 121.59375 258.027344 120.996094 258.679688 120.910156 C 259.324219 120.832031 259.925781 121.28125 260.007812 121.933594 C 260.375 124.71875 261.777344 127.289062 263.84375 128.984375 C 265.984375 130.738281 268.808594 131.527344 271.421875 131.066406 C 274.101562 130.613281 276.46875 128.867188 277.597656 126.503906 C 277.886719 125.910156 278.59375 125.664062 279.1875 125.949219 C 279.777344 126.230469 280.027344 126.9375 279.742188 127.53125 C 278.277344 130.578125 275.242188 132.828125 271.816406 133.40625 C 271.207031 133.511719 270.585938 133.558594 269.964844 133.558594 Z M 269.964844 133.558594 " fill-opacity="1" fill-rule="nonzero"/><path fill="#2a303a" d="M 278.605469 117.402344 C 278.148438 117.402344 277.714844 117.136719 277.515625 116.6875 C 276.492188 114.335938 274.179688 112.613281 271.632812 112.300781 C 270.984375 112.21875 270.519531 111.628906 270.597656 110.976562 C 270.679688 110.324219 271.285156 109.863281 271.921875 109.945312 C 275.285156 110.359375 278.339844 112.632812 279.695312 115.738281 C 279.957031 116.339844 279.683594 117.039062 279.082031 117.300781 C 278.925781 117.371094 278.761719 117.402344 278.605469 117.402344 Z M 278.605469 117.402344 " fill-opacity="1" fill-rule="nonzero"/><path fill="#2a303a" d="M 270.300781 123.851562 C 270.296875 123.851562 270.289062 123.851562 270.289062 123.851562 C 269.628906 123.84375 269.105469 123.308594 269.113281 122.652344 L 269.183594 116.023438 C 269.191406 115.371094 269.71875 114.847656 270.371094 114.847656 C 270.371094 114.847656 270.378906 114.847656 270.378906 114.847656 C 271.039062 114.855469 271.5625 115.390625 271.554688 116.046875 L 271.488281 122.675781 C 271.480469 123.328125 270.949219 123.851562 270.300781 123.851562 Z M 270.300781 123.851562 " fill-opacity="1" fill-rule="nonzero"/><path fill="#2a303a" d="M 265.710938 126.972656 C 265.292969 126.972656 264.890625 126.75 264.671875 126.355469 C 264.355469 125.785156 264.566406 125.0625 265.140625 124.746094 C 266.671875 123.902344 268.199219 122.964844 269.679688 121.957031 C 270.226562 121.582031 270.964844 121.730469 271.328125 122.265625 C 271.699219 122.808594 271.558594 123.546875 271.019531 123.914062 C 269.472656 124.964844 267.882812 125.945312 266.28125 126.828125 C 266.101562 126.925781 265.90625 126.972656 265.710938 126.972656 Z M 265.710938 126.972656 " fill-opacity="1" fill-rule="nonzero"/><path fill="#2a303a" d="M 40.527344 157.882812 C 33.65625 157.882812 26.929688 157.871094 20.425781 157.84375 C 19.769531 157.839844 19.242188 157.304688 19.246094 156.648438 C 19.246094 156 19.78125 155.46875 20.433594 155.46875 C 20.433594 155.46875 20.433594 155.46875 20.4375 155.46875 C 42.910156 155.574219 68.128906 155.460938 92.511719 155.367188 C 116.800781 155.269531 141.921875 155.171875 164.328125 155.261719 C 164.980469 155.261719 165.511719 155.796875 165.507812 156.453125 C 165.503906 157.105469 164.972656 157.636719 164.320312 157.636719 C 164.316406 157.636719 164.316406 157.636719 164.316406 157.636719 C 141.933594 157.546875 116.8125 157.640625 92.519531 157.738281 C 75.183594 157.8125 57.425781 157.882812 40.527344 157.882812 Z M 40.527344 157.882812 " fill-opacity="1" fill-rule="nonzero"/><path fill="#2a303a" d="M 489.566406 158.148438 C 471.425781 158.148438 451.925781 157.917969 433 157.695312 C 411.683594 157.445312 389.640625 157.175781 369.652344 157.253906 C 369.644531 157.253906 369.644531 157.253906 369.644531 157.253906 C 368.992188 157.253906 368.464844 156.726562 368.457031 156.070312 C 368.457031 155.417969 368.984375 154.882812 369.640625 154.878906 C 389.664062 154.84375 411.707031 155.070312 433.03125 155.320312 C 454.335938 155.574219 476.371094 155.859375 496.367188 155.761719 C 496.375 155.761719 496.375 155.761719 496.375 155.761719 C 497.027344 155.761719 497.554688 156.292969 497.5625 156.945312 C 497.5625 157.601562 497.035156 158.132812 496.378906 158.136719 C 494.132812 158.140625 491.859375 158.148438 489.566406 158.148438 Z M 489.566406 158.148438 " fill-opacity="1" fill-rule="nonzero"/></svg>