<svg xmlns="http://www.w3.org/2000/svg" xmlns:xlink="http://www.w3.org/1999/xlink" width="720" zoomAndPan="magnify" viewBox="0 0 540 389.999986" height="520" preserveAspectRatio="xMidYMid meet" version="1.0"><defs><clipPath id="b64428dd90"><path d="M 41.597656 0 L 498.347656 0 L 498.347656 390 L 41.597656 390 Z M 41.597656 0 " clip-rule="nonzero"/></clipPath></defs><path fill="#274975" d="M 251.960938 192.285156 C 250.382812 190.4375 248.175781 188.792969 245.421875 187.402344 C 242.742188 186.042969 239.242188 185.363281 235.015625 185.363281 C 229.253906 185.363281 224.382812 187.148438 220.125 190.8125 C 218.4375 192.457031 216.949219 194.371094 215.699219 196.507812 C 215.296875 197.207031 214.921875 197.925781 214.582031 198.652344 C 215.980469 198.605469 217.503906 198.570312 219.152344 198.539062 L 232.421875 198.304688 C 235.90625 198.304688 239.257812 198.28125 242.546875 198.234375 C 247.789062 198.179688 252.242188 198.167969 255.414062 198.21875 C 255.382812 198.121094 255.339844 198.011719 255.3125 197.910156 C 254.667969 196.019531 253.550781 194.132812 251.960938 192.285156 " fill-opacity="1" fill-rule="nonzero"/><g clip-path="url(#b64428dd90)"><path fill="#274975" d="M 439.613281 235.761719 C 438.378906 238.449219 436.558594 240.875 434.207031 243.007812 C 431.824219 245.144531 428.921875 246.855469 425.570312 248.113281 C 422.21875 249.382812 418.300781 250.027344 413.9375 250.027344 C 409.707031 250.027344 405.71875 249.269531 402.039062 247.773438 C 398.453125 246.316406 395.25 244.421875 392.507812 242.144531 C 389.710938 239.867188 387.445312 237.207031 385.8125 234.265625 C 384.109375 231.214844 383.25 228.078125 383.25 224.9375 C 383.25 223.222656 383.4375 220.746094 385.15625 219.054688 C 386.300781 217.90625 387.996094 217.25 390.828125 216.910156 C 394.296875 216.503906 396.933594 217.921875 398.660156 220.753906 C 399.71875 222.433594 400.609375 224.15625 401.324219 225.84375 C 401.355469 225.917969 401.386719 225.992188 401.417969 226.070312 C 401.90625 226.984375 402.425781 227.90625 402.996094 228.824219 C 403.5 229.695312 404.171875 230.46875 404.988281 231.167969 C 405.824219 231.890625 406.878906 232.46875 408.203125 232.925781 C 410.992188 233.910156 416.664062 233.980469 419.660156 232.851562 C 421.117188 232.308594 422.246094 231.667969 423.050781 230.953125 C 423.828125 230.253906 424.363281 229.582031 424.664062 228.949219 C 425.050781 228.101562 425.078125 227.675781 425.078125 227.574219 C 425.078125 224.75 424.082031 223.464844 423.320312 222.738281 C 421.714844 221.207031 419.613281 219.894531 417.082031 218.839844 C 414.222656 217.652344 411.140625 216.589844 407.851562 215.636719 C 404.230469 214.585938 400.746094 213.203125 397.542969 211.53125 C 394.085938 209.734375 391.199219 207.386719 388.921875 204.554688 C 386.417969 201.460938 385.15625 197.378906 385.15625 192.433594 C 385.15625 190.578125 385.484375 188.394531 386.167969 185.734375 C 386.914062 182.917969 388.28125 180.207031 390.246094 177.660156 C 392.304688 175.058594 395.101562 172.84375 398.585938 171.050781 C 404.914062 167.789062 415.800781 167.390625 423.632812 170.128906 C 427.175781 171.378906 430.214844 173.136719 432.6875 175.367188 C 435.21875 177.667969 437.167969 180.410156 438.496094 183.515625 C 439.804688 186.632812 440.476562 190.039062 440.476562 193.632812 C 440.476562 198.5625 437.320312 201.621094 432.242188 201.621094 C 429.902344 201.621094 428.042969 201.003906 426.714844 199.777344 C 425.527344 198.675781 424.707031 197.09375 424.214844 194.960938 C 424.167969 194.707031 424.125 194.445312 424.125 194.191406 L 423.964844 192.089844 C 423.902344 191.339844 423.503906 190.367188 422.800781 189.285156 C 422.101562 188.167969 420.882812 187.109375 419.152344 186.121094 C 417.992188 185.441406 415.679688 184.648438 411.183594 184.648438 C 408.238281 184.648438 406.65625 185.171875 405.851562 185.613281 C 404.589844 186.304688 403.632812 187.058594 403.054688 187.875 C 402.382812 188.757812 401.980469 189.523438 401.847656 190.222656 C 401.535156 191.59375 401.503906 192.226562 401.503906 192.433594 C 401.503906 193.804688 401.90625 194.667969 402.921875 195.414062 C 404.601562 196.691406 406.777344 197.847656 409.398438 198.84375 C 412.332031 199.984375 415.441406 201.074219 418.777344 202.113281 C 422.503906 203.292969 426 204.832031 429.203125 206.703125 C 432.6875 208.769531 435.578125 211.40625 437.796875 214.546875 C 440.207031 217.957031 441.433594 222.339844 441.433594 227.574219 C 441.433594 230.3125 440.820312 233.066406 439.613281 235.761719 Z M 403.039062 304.097656 L 351.699219 304.097656 C 355.851562 296.042969 359.699219 287.429688 363.085938 278.105469 L 420.65625 278.105469 C 415.558594 287.308594 409.671875 296.023438 403.039062 304.097656 Z M 308.351562 362.6875 C 317.898438 353.441406 328.367188 341.613281 338.265625 326.976562 L 380.328125 326.976562 C 359.828125 344.140625 335.273438 356.527344 308.351562 362.6875 Z M 270.039062 364.90625 C 261.921875 359.210938 246.183594 346.71875 230.46875 326.976562 L 309.921875 326.976562 C 294.171875 346.769531 278.316406 359.199219 270.039062 364.90625 Z M 159.667969 326.976562 L 201.722656 326.976562 C 211.617188 341.613281 222.085938 353.441406 231.636719 362.6875 C 204.714844 356.527344 180.164062 344.140625 159.667969 326.976562 Z M 119.34375 278.105469 L 176.902344 278.105469 C 180.289062 287.429688 184.136719 296.042969 188.292969 304.097656 L 136.957031 304.097656 C 130.324219 296.023438 124.4375 287.308594 119.34375 278.105469 Z M 114.921875 178.207031 C 114.804688 185.71875 114.730469 192.746094 114.6875 199.269531 C 114.644531 205.777344 114.660156 212.632812 114.746094 219.820312 C 114.820312 227.078125 114.792969 234.125 114.628906 240.933594 C 113.273438 248.457031 108.625 249.203125 106.691406 249.203125 C 102.566406 249.203125 99.71875 246.621094 99.09375 242.285156 C 98.707031 239.6875 98.542969 234.757812 98.574219 226.78125 C 98.621094 219.226562 98.886719 204.75 99.34375 183.320312 C 100.078125 150.6875 101.058594 147.855469 101.476562 146.648438 C 103.191406 141.71875 106.003906 140.683594 108.074219 140.683594 C 111.277344 140.683594 114.730469 143.289062 119.644531 149.410156 C 121.449219 151.691406 124.515625 155.953125 128.878906 162.226562 C 133.183594 168.382812 141.820312 181.636719 154.550781 201.621094 L 163.414062 215.816406 C 165.453125 219.082031 167.34375 222.003906 169.058594 224.566406 C 169.074219 224.085938 169.089844 223.597656 169.105469 223.089844 C 169.222656 219.257812 169.324219 214.625 169.398438 209.230469 C 169.476562 203.824219 169.535156 197.894531 169.566406 191.453125 L 169.695312 170.773438 C 169.742188 163.453125 169.753906 155.925781 169.753906 148.199219 C 170.742188 143.277344 173.507812 140.65625 177.648438 140.015625 C 178.234375 139.925781 178.796875 139.972656 179.363281 140.140625 C 183.21875 141.332031 185.484375 144.414062 185.75 148.816406 L 185.75 180.367188 C 185.75 185.882812 185.558594 195.367188 185.199219 208.84375 C 184.855469 222.1875 184.410156 231.585938 183.875 236.753906 C 183.160156 243.597656 178.914062 247.652344 172.257812 247.886719 C 167.984375 247.394531 164.203125 244.546875 159.71875 238.894531 C 157.84375 236.582031 152.601562 228.867188 142.710938 213.902344 C 133.347656 199.691406 127.332031 190.558594 124.707031 186.488281 C 122.863281 183.648438 119.644531 178.621094 115.058594 171.421875 C 115 173.566406 114.953125 175.832031 114.921875 178.207031 Z M 139.136719 83.449219 L 189.59375 83.449219 C 184.945312 92.195312 180.640625 101.613281 176.90625 111.890625 L 119.347656 111.890625 C 124.980469 101.726562 131.640625 92.226562 139.136719 83.449219 Z M 231.640625 27.3125 C 222.621094 36.042969 212.785156 47.050781 203.382812 60.574219 L 162.75 60.574219 C 182.613281 44.691406 206.042969 33.167969 231.640625 27.3125 Z M 269.996094 25.066406 C 277.910156 30.515625 292.832031 42.171875 307.945312 60.574219 L 232.042969 60.574219 C 247.160156 42.171875 262.078125 30.515625 269.996094 25.066406 Z M 377.242188 60.574219 L 336.605469 60.574219 C 327.203125 47.050781 317.363281 36.042969 308.347656 27.3125 C 333.949219 33.167969 357.378906 44.691406 377.242188 60.574219 Z M 332.226562 223.5 C 331.628906 222.15625 331.066406 220.777344 330.511719 219.34375 C 330.113281 220.617188 329.695312 221.863281 329.277344 223.074219 C 327.582031 228.027344 325.839844 232.351562 324.082031 235.941406 C 322.222656 239.746094 320.257812 242.816406 318.226562 245.0625 C 312.984375 250.835938 306.464844 250.609375 300.480469 244.996094 C 297.675781 242.386719 295.164062 238.226562 292.792969 232.265625 C 290.527344 226.640625 288.546875 219.335938 286.730469 209.945312 C 284.949219 200.757812 283.515625 189.136719 282.488281 175.394531 C 282.441406 174.78125 282.726562 173.5 282.96875 172.933594 C 283.21875 172.304688 283.617188 171.691406 284.128906 171.160156 C 285.691406 169.703125 287.328125 168.945312 289.058594 168.792969 C 291.929688 168.054688 295.265625 169.472656 297.488281 172.90625 C 297.8125 173.410156 298.019531 173.984375 298.078125 174.585938 C 299.226562 185.824219 300.480469 194.96875 301.921875 202.539062 C 303.367188 210.089844 304.796875 216.394531 306.199219 221.265625 C 307.71875 226.464844 308.9375 229.320312 309.757812 230.855469 C 309.949219 230.503906 310.128906 230.140625 310.320312 229.761719 C 310.992188 228.347656 311.722656 226.621094 312.464844 224.625 C 313.269531 222.523438 314.042969 220.324219 314.816406 217.988281 C 315.59375 215.605469 316.382812 213.050781 317.15625 210.363281 C 317.960938 207.691406 318.6875 205.0625 319.347656 202.480469 C 320 199.882812 320.625 197.355469 321.175781 194.921875 C 321.726562 192.507812 322.191406 190.292969 322.59375 188.328125 C 323.632812 184.378906 326.539062 182.15625 330.394531 182.15625 C 335.042969 182.15625 338.003906 185.136719 338.136719 189.925781 C 338.214844 191.519531 338.453125 193.328125 338.851562 195.324219 C 339.285156 197.414062 339.851562 199.816406 340.625 202.496094 C 340.6875 202.710938 340.730469 202.933594 340.757812 203.148438 C 341.460938 205.359375 342.234375 207.585938 343.054688 209.820312 C 343.980469 212.320312 344.988281 214.78125 346.0625 217.183594 C 347.046875 219.292969 348.089844 221.390625 349.144531 223.425781 C 350.140625 225.382812 351.171875 227.125 352.210938 228.6875 C 352.480469 229.074219 352.765625 229.441406 353.046875 229.773438 C 353.0625 229.738281 353.078125 229.695312 353.09375 229.648438 C 354.195312 227.066406 355.355469 223.238281 356.574219 218.234375 C 357.8125 213.152344 358.988281 206.8125 360.089844 199.398438 C 361.175781 191.964844 362.054688 183.378906 362.699219 173.890625 C 362.726562 173.261719 363.171875 172.0625 363.5 171.53125 C 364.082031 170.640625 364.722656 170.042969 365.507812 169.648438 C 366.035156 169.300781 366.835938 168.890625 367.566406 168.636719 C 367.984375 168.496094 369.414062 168.0625 369.84375 168.0625 C 371.601562 168.0625 373.226562 168.515625 374.667969 169.421875 C 376.144531 170.328125 377.382812 171.90625 378.453125 174.226562 C 378.589844 174.535156 378.691406 174.855469 378.75 175.191406 C 378.792969 175.503906 378.929688 176.539062 378.894531 176.847656 C 377.84375 189.328125 376.5 200.015625 374.910156 208.617188 C 373.226562 217.535156 371.453125 224.578125 369.488281 230.15625 C 367.429688 235.988281 365.347656 240.261719 363.15625 243.230469 C 360.628906 246.636719 358.09375 248.601562 355.414062 249.222656 C 355.132812 249.292969 354.847656 249.324219 354.550781 249.324219 C 354.472656 249.324219 354.417969 249.324219 354.339844 249.316406 C 351.902344 249.1875 349.308594 247.863281 346.433594 245.285156 C 343.992188 243.117188 341.535156 240.136719 339.105469 236.417969 C 336.742188 232.8125 334.433594 228.464844 332.226562 223.5 Z M 338.65625 278.105469 C 334.773438 287.578125 330.371094 296.210938 325.707031 304.097656 L 214.644531 304.097656 C 209.945312 296.203125 205.511719 287.566406 201.589844 278.105469 Z M 201.332031 111.890625 C 205.636719 101.402344 210.589844 92.003906 215.816406 83.449219 L 324.171875 83.449219 C 329.402344 92.003906 334.355469 101.402344 338.65625 111.890625 Z M 205.929688 181.757812 C 209.292969 177.996094 213.480469 174.898438 218.363281 172.5625 C 227.597656 168.128906 240.804688 167.835938 250.515625 171.867188 C 255.042969 173.757812 258.933594 176.195312 262.101562 179.113281 C 265.300781 182.0625 267.835938 185.40625 269.574219 189.03125 C 271.378906 192.777344 272.289062 196.492188 272.289062 200.074219 C 272.289062 204.292969 271.664062 207.453125 270.367188 209.734375 C 269.355469 211.480469 266.703125 214.371094 261.519531 213.78125 C 254.355469 213.804688 245.722656 213.941406 235.953125 214.175781 L 222.117188 214.65625 C 218.960938 214.757812 215.832031 214.929688 212.734375 215.160156 C 212.929688 216.878906 213.285156 218.554688 213.792969 220.171875 C 214.582031 222.710938 215.84375 224.910156 217.617188 226.875 C 219.378906 228.773438 221.714844 230.3125 224.574219 231.4375 C 228.742188 233.089844 234.445312 234.300781 240.734375 232.402344 C 242.699219 231.824219 244.753906 231.015625 246.855469 229.992188 C 250.425781 228.050781 253.179688 225.179688 255.164062 221.300781 C 256.933594 218.847656 258.914062 217.804688 261.238281 217.730469 C 263.21875 217.765625 265.003906 218.175781 266.628906 219.292969 C 268.3125 220.441406 269.441406 222.113281 270.011719 224.265625 C 270.605469 226.605469 270.113281 228.992188 268.582031 231.414062 C 268.507812 231.535156 268.414062 231.644531 268.339844 231.746094 C 266.851562 234.367188 264.972656 236.769531 262.726562 238.894531 C 260.386719 241.109375 257.722656 243.058594 254.820312 244.707031 C 251.886719 246.34375 248.757812 247.601562 245.480469 248.464844 C 242.222656 249.34375 238.855469 249.792969 235.492188 249.792969 C 228.726562 249.792969 222.757812 248.609375 217.753906 246.277344 C 212.734375 243.9375 208.503906 240.824219 205.167969 237.011719 C 201.863281 233.199219 199.390625 228.808594 197.84375 223.953125 C 196.339844 219.25 195.578125 214.355469 195.578125 209.40625 C 195.578125 204.429688 196.457031 199.488281 198.1875 194.710938 C 199.945312 189.898438 202.546875 185.539062 205.929688 181.757812 Z M 420.652344 111.890625 L 363.082031 111.890625 C 359.347656 101.613281 355.042969 92.195312 350.394531 83.449219 L 400.859375 83.449219 C 408.355469 92.226562 415.019531 101.726562 420.652344 111.890625 Z M 488.414062 111.890625 L 446.160156 111.890625 C 438.132812 94.953125 427.78125 79.382812 415.449219 65.542969 C 414.84375 64.6875 414.1875 63.925781 413.375 63.261719 C 377.703125 24.472656 326.71875 -0.0195312 269.996094 -0.0195312 C 213.277344 -0.0195312 162.300781 24.464844 126.632812 63.25 C 125.800781 63.921875 125.128906 64.703125 124.515625 65.582031 C 112.199219 79.414062 101.859375 94.96875 93.84375 111.890625 L 51.574219 111.890625 C 46.097656 111.890625 41.65625 116.328125 41.65625 121.804688 L 41.65625 268.195312 C 41.65625 273.671875 46.097656 278.105469 51.574219 278.105469 L 93.839844 278.105469 C 125.117188 344.136719 192.207031 390.019531 269.996094 390.019531 C 347.78125 390.019531 414.878906 344.136719 446.160156 278.105469 L 488.414062 278.105469 C 493.894531 278.105469 498.332031 273.671875 498.332031 268.195312 L 498.332031 121.804688 C 498.332031 116.328125 493.894531 111.890625 488.414062 111.890625 " fill-opacity="1" fill-rule="nonzero"/></g></svg>