<svg xmlns="http://www.w3.org/2000/svg" xmlns:xlink="http://www.w3.org/1999/xlink" width="720" zoomAndPan="magnify" viewBox="0 0 540 389.999986" height="520" preserveAspectRatio="xMidYMid meet" version="1.0"><defs><clipPath id="e5103083db"><path d="M 71.570312 105 L 468 105 L 468 388.277344 L 71.570312 388.277344 Z M 71.570312 105 " clip-rule="nonzero"/></clipPath><clipPath id="4c68816bfc"><path d="M 364 286 L 468 286 L 468 388.277344 L 364 388.277344 Z M 364 286 " clip-rule="nonzero"/></clipPath><clipPath id="a26f59a168"><path d="M 116 2.027344 L 147 2.027344 L 147 52 L 116 52 Z M 116 2.027344 " clip-rule="nonzero"/></clipPath><clipPath id="238f1518be"><path d="M 185 2.027344 L 216 2.027344 L 216 52 L 185 52 Z M 185 2.027344 " clip-rule="nonzero"/></clipPath><clipPath id="953c72cf25"><path d="M 255 2.027344 L 285 2.027344 L 285 52 L 255 52 Z M 255 2.027344 " clip-rule="nonzero"/></clipPath><clipPath id="bb2958de02"><path d="M 324 2.027344 L 354 2.027344 L 354 52 L 324 52 Z M 324 2.027344 " clip-rule="nonzero"/></clipPath><clipPath id="4732a2b9a3"><path d="M 393 2.027344 L 424 2.027344 L 424 52 L 393 52 Z M 393 2.027344 " clip-rule="nonzero"/></clipPath><clipPath id="f968757788"><path d="M 71.570312 23 L 468 23 L 468 113 L 71.570312 113 Z M 71.570312 23 " clip-rule="nonzero"/></clipPath></defs><path fill="#eaf4f9" d="M 403.425781 290.238281 L 464.527344 290.238281 L 464.527344 109.082031 L 75.097656 109.082031 L 75.097656 349.722656 C 75.097656 369.117188 90.800781 384.835938 110.171875 384.835938 L 368.351562 384.835938 L 368.351562 325.351562 C 368.351562 305.960938 384.054688 290.238281 403.429688 290.238281 Z M 403.425781 290.238281 " fill-opacity="1" fill-rule="nonzero"/><g clip-path="url(#e5103083db)"><path fill="#251c75" d="M 368.351562 388.269531 L 110.171875 388.269531 C 88.941406 388.269531 71.667969 370.976562 71.667969 349.722656 L 71.667969 109.082031 C 71.667969 107.1875 73.203125 105.648438 75.097656 105.648438 L 464.527344 105.648438 C 466.421875 105.648438 467.957031 107.1875 467.957031 109.082031 L 467.957031 290.238281 C 467.957031 292.132812 466.421875 293.671875 464.527344 293.671875 L 403.425781 293.671875 C 385.976562 293.671875 371.78125 307.882812 371.78125 325.351562 L 371.78125 384.835938 C 371.78125 386.730469 370.246094 388.265625 368.351562 388.265625 Z M 78.527344 112.515625 L 78.527344 349.722656 C 78.527344 367.191406 92.722656 381.402344 110.171875 381.402344 L 364.925781 381.402344 L 364.925781 325.351562 C 364.925781 304.097656 382.199219 286.808594 403.429688 286.808594 L 461.101562 286.808594 L 461.101562 112.515625 Z M 78.527344 112.515625 " fill-opacity="1" fill-rule="nonzero"/></g><path fill="#251c75" d="M 152.898438 171.367188 L 135.46875 171.367188 C 133.578125 171.367188 132.042969 169.832031 132.042969 167.9375 C 132.042969 166.039062 133.578125 164.503906 135.46875 164.503906 L 152.898438 164.503906 C 154.789062 164.503906 156.324219 166.039062 156.324219 167.9375 C 156.324219 169.832031 154.789062 171.367188 152.898438 171.367188 Z M 152.898438 171.367188 " fill-opacity="1" fill-rule="nonzero"/><path fill="#251c75" d="M 158.410156 190.761719 L 135.46875 190.761719 C 133.578125 190.761719 132.042969 189.222656 132.042969 187.328125 L 132.042969 148.542969 C 132.042969 146.648438 133.578125 145.113281 135.46875 145.113281 L 158.410156 145.113281 C 160.304688 145.113281 161.839844 146.648438 161.839844 148.542969 C 161.839844 150.4375 160.304688 151.976562 158.410156 151.976562 L 138.898438 151.976562 L 138.898438 183.894531 L 158.410156 183.894531 C 160.304688 183.894531 161.839844 185.433594 161.839844 187.328125 C 161.839844 189.222656 160.304688 190.761719 158.410156 190.761719 Z M 158.410156 190.761719 " fill-opacity="1" fill-rule="nonzero"/><path fill="#251c75" d="M 246.671875 171.367188 L 229.246094 171.367188 C 227.351562 171.367188 225.816406 169.832031 225.816406 167.9375 C 225.816406 166.039062 227.351562 164.503906 229.246094 164.503906 L 246.671875 164.503906 C 248.566406 164.503906 250.101562 166.039062 250.101562 167.9375 C 250.101562 169.832031 248.566406 171.367188 246.671875 171.367188 Z M 246.671875 171.367188 " fill-opacity="1" fill-rule="nonzero"/><path fill="#251c75" d="M 252.1875 190.761719 L 229.246094 190.761719 C 227.351562 190.761719 225.816406 189.222656 225.816406 187.328125 L 225.816406 148.542969 C 225.816406 146.648438 227.351562 145.113281 229.246094 145.113281 L 252.1875 145.113281 C 254.082031 145.113281 255.617188 146.648438 255.617188 148.542969 C 255.617188 150.4375 254.082031 151.976562 252.1875 151.976562 L 232.675781 151.976562 L 232.675781 183.894531 L 252.1875 183.894531 C 254.082031 183.894531 255.617188 185.433594 255.617188 187.328125 C 255.617188 189.222656 254.082031 190.761719 252.1875 190.761719 Z M 252.1875 190.761719 " fill-opacity="1" fill-rule="nonzero"/><path fill="#251c75" d="M 304.101562 190.761719 C 302.207031 190.761719 300.671875 189.222656 300.671875 187.328125 L 300.671875 148.542969 C 300.671875 146.648438 302.207031 145.113281 304.101562 145.113281 C 305.996094 145.113281 307.53125 146.648438 307.53125 148.542969 L 307.53125 187.328125 C 307.53125 189.222656 305.996094 190.761719 304.101562 190.761719 Z M 304.101562 190.761719 " fill-opacity="1" fill-rule="nonzero"/><path fill="#251c75" d="M 304.105469 190.761719 C 303.046875 190.761719 302.007812 190.273438 301.335938 189.355469 L 279.15625 159.039062 L 279.15625 187.328125 C 279.15625 189.222656 277.625 190.761719 275.730469 190.761719 C 273.835938 190.761719 272.300781 189.222656 272.300781 187.328125 L 272.300781 148.542969 C 272.300781 147.058594 273.253906 145.742188 274.664062 145.28125 C 276.070312 144.820312 277.621094 145.316406 278.496094 146.515625 L 306.867188 185.300781 C 307.984375 186.828125 307.652344 188.976562 306.125 190.097656 C 305.515625 190.542969 304.808594 190.761719 304.105469 190.761719 Z M 304.105469 190.761719 " fill-opacity="1" fill-rule="nonzero"/><path fill="#251c75" d="M 394.472656 190.761719 L 389.386719 190.761719 C 382.15625 190.761719 376.273438 184.871094 376.273438 177.632812 C 376.273438 175.734375 377.808594 174.199219 379.703125 174.199219 C 381.59375 174.199219 383.128906 175.734375 383.128906 177.632812 C 383.128906 181.085938 385.9375 183.894531 389.386719 183.894531 L 394.472656 183.894531 C 397.921875 183.894531 400.730469 181.085938 400.730469 177.632812 C 400.730469 174.175781 397.921875 171.367188 394.472656 171.367188 L 389.386719 171.367188 C 382.15625 171.367188 376.273438 165.476562 376.273438 158.238281 C 376.273438 151 382.15625 145.109375 389.386719 145.109375 L 394.472656 145.109375 C 401.703125 145.109375 407.585938 151 407.585938 158.238281 C 407.585938 160.132812 406.050781 161.671875 404.15625 161.671875 C 402.261719 161.671875 400.730469 160.132812 400.730469 158.238281 C 400.730469 154.785156 397.921875 151.976562 394.472656 151.976562 L 389.386719 151.976562 C 385.9375 151.976562 383.128906 154.785156 383.128906 158.238281 C 383.128906 161.691406 385.9375 164.503906 389.386719 164.503906 L 394.472656 164.503906 C 401.703125 164.503906 407.585938 170.390625 407.585938 177.632812 C 407.585938 184.871094 401.703125 190.761719 394.472656 190.761719 Z M 394.472656 190.761719 " fill-opacity="1" fill-rule="nonzero"/><path fill="#251c75" d="M 343.511719 190.761719 C 341.617188 190.761719 340.082031 189.222656 340.082031 187.328125 L 340.082031 148.542969 C 340.082031 146.648438 341.617188 145.113281 343.511719 145.113281 C 345.40625 145.113281 346.941406 146.648438 346.941406 148.542969 L 346.941406 187.328125 C 346.941406 189.222656 345.40625 190.761719 343.511719 190.761719 Z M 343.511719 190.761719 " fill-opacity="1" fill-rule="nonzero"/><path fill="#251c75" d="M 359.660156 151.976562 L 327.363281 151.976562 C 325.46875 151.976562 323.933594 150.4375 323.933594 148.542969 C 323.933594 146.648438 325.46875 145.113281 327.363281 145.113281 L 359.660156 145.113281 C 361.554688 145.113281 363.089844 146.648438 363.089844 148.542969 C 363.089844 150.4375 361.554688 151.976562 359.660156 151.976562 Z M 359.660156 151.976562 " fill-opacity="1" fill-rule="nonzero"/><path fill="#251c75" d="M 194.074219 190.761719 C 192.632812 190.761719 191.347656 189.859375 190.851562 188.507812 L 176.667969 149.722656 C 176.015625 147.945312 176.929688 145.972656 178.707031 145.320312 C 180.488281 144.667969 182.457031 145.582031 183.105469 147.363281 L 194.074219 177.347656 L 205.039062 147.363281 C 205.691406 145.582031 207.660156 144.667969 209.4375 145.320312 C 211.214844 145.972656 212.128906 147.945312 211.476562 149.722656 L 197.292969 188.507812 C 196.796875 189.859375 195.511719 190.761719 194.074219 190.761719 Z M 194.074219 190.761719 " fill-opacity="1" fill-rule="nonzero"/><path fill="#82bfd8" d="M 368.351562 384.835938 L 368.351562 325.351562 C 368.351562 305.960938 384.054688 290.238281 403.429688 290.238281 L 464.527344 290.238281 Z M 368.351562 384.835938 " fill-opacity="1" fill-rule="nonzero"/><g clip-path="url(#4c68816bfc)"><path fill="#251c75" d="M 368.351562 388.269531 C 367.90625 388.269531 367.457031 388.179688 367.027344 388 C 365.753906 387.464844 364.925781 386.21875 364.925781 384.835938 L 364.925781 325.351562 C 364.925781 304.097656 382.195312 286.808594 403.425781 286.808594 L 464.527344 286.808594 C 465.921875 286.808594 467.175781 287.648438 467.703125 288.941406 C 468.230469 290.230469 467.921875 291.710938 466.929688 292.6875 L 370.753906 387.285156 C 370.101562 387.925781 369.234375 388.269531 368.351562 388.269531 Z M 403.429688 293.671875 C 385.976562 293.671875 371.78125 307.882812 371.78125 325.351562 L 371.78125 376.652344 L 456.148438 293.671875 Z M 403.429688 293.671875 " fill-opacity="1" fill-rule="nonzero"/></g><path fill="#82bfd8" d="M 128.015625 5.449219 L 134.632812 5.449219 C 135.164062 5.449219 135.6875 5.5 136.207031 5.605469 C 136.726562 5.707031 137.230469 5.859375 137.71875 6.0625 C 138.207031 6.265625 138.671875 6.515625 139.113281 6.808594 C 139.550781 7.101562 139.960938 7.4375 140.332031 7.8125 C 140.707031 8.1875 141.042969 8.59375 141.335938 9.035156 C 141.628906 9.476562 141.878906 9.941406 142.082031 10.429688 C 142.28125 10.917969 142.4375 11.421875 142.539062 11.941406 C 142.640625 12.460938 142.695312 12.988281 142.695312 13.515625 L 142.695312 39.800781 C 142.695312 40.328125 142.640625 40.855469 142.539062 41.375 C 142.4375 41.894531 142.28125 42.398438 142.082031 42.886719 C 141.878906 43.375 141.628906 43.839844 141.335938 44.28125 C 141.042969 44.722656 140.707031 45.128906 140.332031 45.503906 C 139.960938 45.878906 139.550781 46.214844 139.113281 46.507812 C 138.671875 46.800781 138.207031 47.050781 137.71875 47.253906 C 137.230469 47.457031 136.726562 47.609375 136.207031 47.710938 C 135.6875 47.816406 135.164062 47.867188 134.632812 47.867188 L 128.015625 47.867188 C 127.488281 47.867188 126.964844 47.816406 126.445312 47.710938 C 125.925781 47.609375 125.421875 47.457031 124.933594 47.253906 C 124.445312 47.050781 123.980469 46.800781 123.539062 46.507812 C 123.097656 46.214844 122.691406 45.878906 122.316406 45.503906 C 121.945312 45.128906 121.609375 44.722656 121.316406 44.28125 C 121.019531 43.839844 120.773438 43.375 120.570312 42.886719 C 120.367188 42.398438 120.214844 41.894531 120.113281 41.375 C 120.007812 40.855469 119.957031 40.328125 119.957031 39.800781 L 119.957031 13.515625 C 119.957031 12.988281 120.007812 12.460938 120.113281 11.941406 C 120.214844 11.421875 120.367188 10.917969 120.570312 10.429688 C 120.773438 9.941406 121.019531 9.476562 121.316406 9.035156 C 121.609375 8.59375 121.945312 8.1875 122.316406 7.8125 C 122.691406 7.4375 123.097656 7.101562 123.539062 6.808594 C 123.980469 6.515625 124.445312 6.265625 124.933594 6.0625 C 125.421875 5.859375 125.925781 5.707031 126.445312 5.605469 C 126.964844 5.5 127.488281 5.449219 128.015625 5.449219 Z M 128.015625 5.449219 " fill-opacity="1" fill-rule="nonzero"/><g clip-path="url(#a26f59a168)"><path fill="#251c75" d="M 134.632812 51.300781 L 128.015625 51.300781 C 121.683594 51.300781 116.527344 46.140625 116.527344 39.800781 L 116.527344 13.515625 C 116.527344 7.175781 121.683594 2.015625 128.015625 2.015625 L 134.632812 2.015625 C 140.96875 2.015625 146.121094 7.175781 146.121094 13.515625 L 146.121094 39.800781 C 146.121094 46.140625 140.96875 51.300781 134.632812 51.300781 Z M 128.015625 8.878906 C 125.464844 8.878906 123.386719 10.960938 123.386719 13.515625 L 123.386719 39.800781 C 123.386719 42.355469 125.464844 44.4375 128.015625 44.4375 L 134.632812 44.4375 C 137.1875 44.4375 139.265625 42.355469 139.265625 39.800781 L 139.265625 13.515625 C 139.265625 10.960938 137.1875 8.878906 134.632812 8.878906 Z M 128.015625 8.878906 " fill-opacity="1" fill-rule="nonzero"/></g><path fill="#82bfd8" d="M 197.261719 5.449219 L 203.878906 5.449219 C 204.40625 5.449219 204.929688 5.5 205.449219 5.605469 C 205.96875 5.707031 206.472656 5.859375 206.960938 6.0625 C 207.453125 6.265625 207.914062 6.515625 208.355469 6.808594 C 208.796875 7.101562 209.203125 7.4375 209.578125 7.8125 C 209.953125 8.1875 210.285156 8.59375 210.578125 9.035156 C 210.875 9.476562 211.121094 9.941406 211.324219 10.429688 C 211.527344 10.917969 211.679688 11.421875 211.78125 11.941406 C 211.886719 12.460938 211.9375 12.988281 211.9375 13.515625 L 211.9375 39.800781 C 211.9375 40.328125 211.886719 40.855469 211.78125 41.375 C 211.679688 41.894531 211.527344 42.398438 211.324219 42.886719 C 211.121094 43.375 210.875 43.839844 210.578125 44.28125 C 210.285156 44.722656 209.953125 45.128906 209.578125 45.503906 C 209.203125 45.878906 208.796875 46.214844 208.355469 46.507812 C 207.914062 46.800781 207.453125 47.050781 206.960938 47.253906 C 206.472656 47.457031 205.96875 47.609375 205.449219 47.710938 C 204.929688 47.816406 204.40625 47.867188 203.878906 47.867188 L 197.261719 47.867188 C 196.730469 47.867188 196.207031 47.816406 195.6875 47.710938 C 195.167969 47.609375 194.664062 47.457031 194.175781 47.253906 C 193.6875 47.050781 193.222656 46.800781 192.78125 46.507812 C 192.34375 46.214844 191.9375 45.878906 191.5625 45.503906 C 191.1875 45.128906 190.851562 44.722656 190.558594 44.28125 C 190.265625 43.839844 190.015625 43.375 189.816406 42.886719 C 189.613281 42.398438 189.460938 41.894531 189.355469 41.375 C 189.253906 40.855469 189.199219 40.328125 189.199219 39.800781 L 189.199219 13.515625 C 189.199219 12.988281 189.253906 12.460938 189.355469 11.941406 C 189.460938 11.421875 189.613281 10.917969 189.816406 10.429688 C 190.015625 9.941406 190.265625 9.476562 190.558594 9.035156 C 190.851562 8.59375 191.1875 8.1875 191.5625 7.8125 C 191.9375 7.4375 192.34375 7.101562 192.78125 6.808594 C 193.222656 6.515625 193.6875 6.265625 194.175781 6.0625 C 194.664062 5.859375 195.167969 5.707031 195.6875 5.605469 C 196.207031 5.5 196.730469 5.449219 197.261719 5.449219 Z M 197.261719 5.449219 " fill-opacity="1" fill-rule="nonzero"/><g clip-path="url(#238f1518be)"><path fill="#251c75" d="M 203.878906 51.300781 L 197.261719 51.300781 C 190.925781 51.300781 185.773438 46.140625 185.773438 39.800781 L 185.773438 13.515625 C 185.773438 7.175781 190.925781 2.015625 197.261719 2.015625 L 203.878906 2.015625 C 210.210938 2.015625 215.367188 7.175781 215.367188 13.515625 L 215.367188 39.800781 C 215.367188 46.140625 210.210938 51.300781 203.878906 51.300781 Z M 197.261719 8.878906 C 194.707031 8.878906 192.628906 10.960938 192.628906 13.515625 L 192.628906 39.800781 C 192.628906 42.355469 194.707031 44.4375 197.261719 44.4375 L 203.878906 44.4375 C 206.433594 44.4375 208.507812 42.355469 208.507812 39.800781 L 208.507812 13.515625 C 208.507812 10.960938 206.433594 8.878906 203.878906 8.878906 Z M 197.261719 8.878906 " fill-opacity="1" fill-rule="nonzero"/></g><path fill="#82bfd8" d="M 266.503906 5.449219 L 273.121094 5.449219 C 273.652344 5.449219 274.175781 5.5 274.695312 5.605469 C 275.214844 5.707031 275.71875 5.859375 276.207031 6.0625 C 276.695312 6.265625 277.160156 6.515625 277.601562 6.808594 C 278.039062 7.101562 278.445312 7.4375 278.820312 7.8125 C 279.195312 8.1875 279.53125 8.59375 279.824219 9.035156 C 280.117188 9.476562 280.367188 9.941406 280.566406 10.429688 C 280.769531 10.917969 280.921875 11.421875 281.027344 11.941406 C 281.128906 12.460938 281.183594 12.988281 281.183594 13.515625 L 281.183594 39.800781 C 281.183594 40.328125 281.128906 40.855469 281.027344 41.375 C 280.921875 41.894531 280.769531 42.398438 280.566406 42.886719 C 280.367188 43.375 280.117188 43.839844 279.824219 44.28125 C 279.53125 44.722656 279.195312 45.128906 278.820312 45.503906 C 278.445312 45.878906 278.039062 46.214844 277.601562 46.507812 C 277.160156 46.800781 276.695312 47.050781 276.207031 47.253906 C 275.71875 47.457031 275.214844 47.609375 274.695312 47.710938 C 274.175781 47.816406 273.652344 47.867188 273.121094 47.867188 L 266.503906 47.867188 C 265.976562 47.867188 265.453125 47.816406 264.933594 47.710938 C 264.414062 47.609375 263.910156 47.457031 263.421875 47.253906 C 262.929688 47.050781 262.46875 46.800781 262.027344 46.507812 C 261.585938 46.214844 261.179688 45.878906 260.804688 45.503906 C 260.429688 45.128906 260.097656 44.722656 259.804688 44.28125 C 259.507812 43.839844 259.261719 43.375 259.058594 42.886719 C 258.855469 42.398438 258.703125 41.894531 258.601562 41.375 C 258.496094 40.855469 258.445312 40.328125 258.445312 39.800781 L 258.445312 13.515625 C 258.445312 12.988281 258.496094 12.460938 258.601562 11.941406 C 258.703125 11.421875 258.855469 10.917969 259.058594 10.429688 C 259.261719 9.941406 259.507812 9.476562 259.804688 9.035156 C 260.097656 8.59375 260.429688 8.1875 260.804688 7.8125 C 261.179688 7.4375 261.585938 7.101562 262.027344 6.808594 C 262.46875 6.515625 262.929688 6.265625 263.421875 6.0625 C 263.910156 5.859375 264.414062 5.707031 264.933594 5.605469 C 265.453125 5.5 265.976562 5.449219 266.503906 5.449219 Z M 266.503906 5.449219 " fill-opacity="1" fill-rule="nonzero"/><g clip-path="url(#953c72cf25)"><path fill="#251c75" d="M 273.121094 51.300781 L 266.503906 51.300781 C 260.171875 51.300781 255.015625 46.140625 255.015625 39.800781 L 255.015625 13.515625 C 255.015625 7.175781 260.171875 2.015625 266.503906 2.015625 L 273.121094 2.015625 C 279.457031 2.015625 284.609375 7.175781 284.609375 13.515625 L 284.609375 39.800781 C 284.609375 46.140625 279.457031 51.300781 273.121094 51.300781 Z M 266.503906 8.878906 C 263.949219 8.878906 261.875 10.960938 261.875 13.515625 L 261.875 39.800781 C 261.875 42.355469 263.949219 44.4375 266.503906 44.4375 L 273.121094 44.4375 C 275.675781 44.4375 277.753906 42.355469 277.753906 39.800781 L 277.753906 13.515625 C 277.753906 10.960938 275.675781 8.878906 273.121094 8.878906 Z M 266.503906 8.878906 " fill-opacity="1" fill-rule="nonzero"/></g><path fill="#82bfd8" d="M 335.75 5.449219 L 342.367188 5.449219 C 342.894531 5.449219 343.417969 5.5 343.9375 5.605469 C 344.457031 5.707031 344.960938 5.859375 345.449219 6.0625 C 345.9375 6.265625 346.402344 6.515625 346.84375 6.808594 C 347.285156 7.101562 347.691406 7.4375 348.066406 7.8125 C 348.4375 8.1875 348.773438 8.59375 349.066406 9.035156 C 349.363281 9.476562 349.609375 9.941406 349.8125 10.429688 C 350.015625 10.917969 350.167969 11.421875 350.269531 11.941406 C 350.375 12.460938 350.425781 12.988281 350.425781 13.515625 L 350.425781 39.800781 C 350.425781 40.328125 350.375 40.855469 350.269531 41.375 C 350.167969 41.894531 350.015625 42.398438 349.8125 42.886719 C 349.609375 43.375 349.363281 43.839844 349.066406 44.28125 C 348.773438 44.722656 348.4375 45.128906 348.066406 45.503906 C 347.691406 45.878906 347.285156 46.214844 346.84375 46.507812 C 346.402344 46.800781 345.9375 47.050781 345.449219 47.253906 C 344.960938 47.457031 344.457031 47.609375 343.9375 47.710938 C 343.417969 47.816406 342.894531 47.867188 342.367188 47.867188 L 335.75 47.867188 C 335.21875 47.867188 334.695312 47.816406 334.175781 47.710938 C 333.65625 47.609375 333.152344 47.457031 332.664062 47.253906 C 332.175781 47.050781 331.710938 46.800781 331.269531 46.507812 C 330.832031 46.214844 330.421875 45.878906 330.050781 45.503906 C 329.675781 45.128906 329.339844 44.722656 329.046875 44.28125 C 328.753906 43.839844 328.503906 43.375 328.300781 42.886719 C 328.101562 42.398438 327.945312 41.894531 327.84375 41.375 C 327.742188 40.855469 327.6875 40.328125 327.6875 39.800781 L 327.6875 13.515625 C 327.6875 12.988281 327.742188 12.460938 327.84375 11.941406 C 327.945312 11.421875 328.101562 10.917969 328.300781 10.429688 C 328.503906 9.941406 328.753906 9.476562 329.046875 9.035156 C 329.339844 8.59375 329.675781 8.1875 330.050781 7.8125 C 330.421875 7.4375 330.832031 7.101562 331.269531 6.808594 C 331.710938 6.515625 332.175781 6.265625 332.664062 6.0625 C 333.152344 5.859375 333.65625 5.707031 334.175781 5.605469 C 334.695312 5.5 335.21875 5.449219 335.75 5.449219 Z M 335.75 5.449219 " fill-opacity="1" fill-rule="nonzero"/><g clip-path="url(#bb2958de02)"><path fill="#251c75" d="M 342.367188 51.300781 L 335.75 51.300781 C 329.414062 51.300781 324.261719 46.140625 324.261719 39.800781 L 324.261719 13.515625 C 324.261719 7.175781 329.414062 2.015625 335.75 2.015625 L 342.367188 2.015625 C 348.699219 2.015625 353.855469 7.175781 353.855469 13.515625 L 353.855469 39.800781 C 353.855469 46.140625 348.699219 51.300781 342.367188 51.300781 Z M 335.75 8.878906 C 333.195312 8.878906 331.117188 10.960938 331.117188 13.515625 L 331.117188 39.800781 C 331.117188 42.355469 333.195312 44.4375 335.75 44.4375 L 342.367188 44.4375 C 344.921875 44.4375 346.996094 42.355469 346.996094 39.800781 L 346.996094 13.515625 C 346.996094 10.960938 344.921875 8.878906 342.367188 8.878906 Z M 335.75 8.878906 " fill-opacity="1" fill-rule="nonzero"/></g><path fill="#82bfd8" d="M 404.992188 5.449219 L 411.609375 5.449219 C 412.140625 5.449219 412.664062 5.5 413.183594 5.605469 C 413.703125 5.707031 414.207031 5.859375 414.695312 6.0625 C 415.183594 6.265625 415.648438 6.515625 416.085938 6.808594 C 416.527344 7.101562 416.933594 7.4375 417.308594 7.8125 C 417.683594 8.1875 418.019531 8.59375 418.3125 9.035156 C 418.605469 9.476562 418.855469 9.941406 419.054688 10.429688 C 419.257812 10.917969 419.410156 11.421875 419.515625 11.941406 C 419.617188 12.460938 419.671875 12.988281 419.671875 13.515625 L 419.671875 39.800781 C 419.671875 40.328125 419.617188 40.855469 419.515625 41.375 C 419.410156 41.894531 419.257812 42.398438 419.054688 42.886719 C 418.855469 43.375 418.605469 43.839844 418.3125 44.28125 C 418.015625 44.722656 417.683594 45.128906 417.308594 45.503906 C 416.933594 45.878906 416.527344 46.214844 416.085938 46.507812 C 415.648438 46.800781 415.183594 47.050781 414.695312 47.253906 C 414.207031 47.457031 413.703125 47.609375 413.183594 47.710938 C 412.664062 47.816406 412.140625 47.867188 411.609375 47.867188 L 404.992188 47.867188 C 404.464844 47.867188 403.941406 47.816406 403.421875 47.710938 C 402.902344 47.609375 402.398438 47.457031 401.910156 47.253906 C 401.417969 47.050781 400.957031 46.800781 400.515625 46.507812 C 400.074219 46.214844 399.667969 45.878906 399.292969 45.503906 C 398.917969 45.128906 398.585938 44.722656 398.292969 44.28125 C 397.996094 43.839844 397.75 43.375 397.546875 42.886719 C 397.34375 42.398438 397.191406 41.894531 397.089844 41.375 C 396.984375 40.855469 396.933594 40.328125 396.933594 39.800781 L 396.933594 13.515625 C 396.933594 12.988281 396.984375 12.460938 397.089844 11.941406 C 397.191406 11.421875 397.34375 10.917969 397.546875 10.429688 C 397.75 9.941406 397.996094 9.476562 398.292969 9.035156 C 398.585938 8.59375 398.917969 8.1875 399.292969 7.8125 C 399.667969 7.4375 400.074219 7.101562 400.515625 6.808594 C 400.957031 6.515625 401.417969 6.265625 401.910156 6.0625 C 402.398438 5.859375 402.902344 5.707031 403.421875 5.605469 C 403.941406 5.5 404.464844 5.449219 404.992188 5.449219 Z M 404.992188 5.449219 " fill-opacity="1" fill-rule="nonzero"/><g clip-path="url(#4732a2b9a3)"><path fill="#251c75" d="M 411.609375 51.300781 L 404.992188 51.300781 C 398.660156 51.300781 393.503906 46.140625 393.503906 39.800781 L 393.503906 13.515625 C 393.503906 7.175781 398.660156 2.015625 404.992188 2.015625 L 411.609375 2.015625 C 417.945312 2.015625 423.097656 7.175781 423.097656 13.515625 L 423.097656 39.800781 C 423.097656 46.140625 417.945312 51.300781 411.609375 51.300781 Z M 404.992188 8.878906 C 402.4375 8.878906 400.363281 10.960938 400.363281 13.515625 L 400.363281 39.800781 C 400.363281 42.355469 402.4375 44.4375 404.992188 44.4375 L 411.609375 44.4375 C 414.164062 44.4375 416.242188 42.355469 416.242188 39.800781 L 416.242188 13.515625 C 416.242188 10.960938 414.164062 8.878906 411.609375 8.878906 Z M 404.992188 8.878906 " fill-opacity="1" fill-rule="nonzero"/></g><path fill="#fed46f" d="M 429.453125 27.097656 L 419.667969 27.097656 L 419.667969 39.800781 C 419.667969 44.253906 416.0625 47.867188 411.609375 47.867188 L 404.992188 47.867188 C 400.542969 47.867188 396.933594 44.253906 396.933594 39.800781 L 396.933594 27.097656 L 350.425781 27.097656 L 350.425781 39.800781 C 350.425781 44.253906 346.816406 47.867188 342.367188 47.867188 L 335.75 47.867188 C 331.296875 47.867188 327.6875 44.253906 327.6875 39.800781 L 327.6875 27.097656 L 281.179688 27.097656 L 281.179688 39.800781 C 281.179688 44.253906 277.574219 47.867188 273.121094 47.867188 L 266.503906 47.867188 C 262.050781 47.867188 258.445312 44.253906 258.445312 39.800781 L 258.445312 27.097656 L 211.9375 27.097656 L 211.9375 39.800781 C 211.9375 44.253906 208.328125 47.867188 203.878906 47.867188 L 197.257812 47.867188 C 192.808594 47.867188 189.199219 44.253906 189.199219 39.800781 L 189.199219 27.097656 L 142.691406 27.097656 L 142.691406 39.800781 C 142.691406 44.253906 139.085938 47.867188 134.632812 47.867188 L 128.015625 47.867188 C 123.5625 47.867188 119.957031 44.253906 119.957031 39.800781 L 119.957031 27.097656 L 110.171875 27.097656 C 90.800781 27.097656 75.097656 42.816406 75.097656 62.210938 L 75.097656 109.082031 L 464.527344 109.082031 L 464.527344 62.210938 C 464.527344 42.816406 448.824219 27.097656 429.453125 27.097656 Z M 429.453125 27.097656 " fill-opacity="1" fill-rule="nonzero"/><g clip-path="url(#f968757788)"><path fill="#251c75" d="M 464.527344 112.515625 L 75.097656 112.515625 C 73.203125 112.515625 71.667969 110.976562 71.667969 109.082031 L 71.667969 62.210938 C 71.667969 40.957031 88.941406 23.664062 110.171875 23.664062 L 119.957031 23.664062 C 121.851562 23.664062 123.386719 25.203125 123.386719 27.097656 L 123.386719 39.800781 C 123.386719 42.355469 125.464844 44.4375 128.015625 44.4375 L 134.632812 44.4375 C 137.1875 44.4375 139.265625 42.355469 139.265625 39.800781 L 139.265625 27.097656 C 139.265625 25.203125 140.800781 23.664062 142.695312 23.664062 L 189.203125 23.664062 C 191.09375 23.664062 192.628906 25.203125 192.628906 27.097656 L 192.628906 39.800781 C 192.628906 42.355469 194.707031 44.4375 197.261719 44.4375 L 203.878906 44.4375 C 206.433594 44.4375 208.511719 42.355469 208.511719 39.800781 L 208.511719 27.097656 C 208.511719 25.203125 210.042969 23.664062 211.9375 23.664062 L 258.445312 23.664062 C 260.339844 23.664062 261.875 25.203125 261.875 27.097656 L 261.875 39.800781 C 261.875 42.355469 263.953125 44.4375 266.503906 44.4375 L 273.121094 44.4375 C 275.675781 44.4375 277.753906 42.355469 277.753906 39.800781 L 277.753906 27.097656 C 277.753906 25.203125 279.289062 23.664062 281.183594 23.664062 L 327.691406 23.664062 C 329.582031 23.664062 331.117188 25.203125 331.117188 27.097656 L 331.117188 39.800781 C 331.117188 42.355469 333.195312 44.4375 335.75 44.4375 L 342.367188 44.4375 C 344.921875 44.4375 347 42.355469 347 39.800781 L 347 27.097656 C 347 25.203125 348.53125 23.664062 350.425781 23.664062 L 396.933594 23.664062 C 398.828125 23.664062 400.363281 25.203125 400.363281 27.097656 L 400.363281 39.800781 C 400.363281 42.355469 402.441406 44.4375 404.992188 44.4375 L 411.609375 44.4375 C 414.164062 44.4375 416.242188 42.355469 416.242188 39.800781 L 416.242188 27.097656 C 416.242188 25.203125 417.777344 23.664062 419.671875 23.664062 L 429.457031 23.664062 C 450.6875 23.664062 467.957031 40.957031 467.957031 62.210938 L 467.957031 109.082031 C 467.957031 110.976562 466.421875 112.515625 464.53125 112.515625 Z M 78.527344 105.648438 L 461.101562 105.648438 L 461.101562 62.210938 C 461.101562 44.742188 446.902344 30.527344 429.453125 30.527344 L 423.097656 30.527344 L 423.097656 39.800781 C 423.097656 46.140625 417.945312 51.300781 411.609375 51.300781 L 404.992188 51.300781 C 398.660156 51.300781 393.503906 46.140625 393.503906 39.800781 L 393.503906 30.527344 L 353.855469 30.527344 L 353.855469 39.800781 C 353.855469 46.140625 348.699219 51.300781 342.367188 51.300781 L 335.75 51.300781 C 329.414062 51.300781 324.261719 46.140625 324.261719 39.800781 L 324.261719 30.527344 L 284.609375 30.527344 L 284.609375 39.800781 C 284.609375 46.140625 279.457031 51.300781 273.121094 51.300781 L 266.503906 51.300781 C 260.171875 51.300781 255.015625 46.140625 255.015625 39.800781 L 255.015625 30.527344 L 215.367188 30.527344 L 215.367188 39.800781 C 215.367188 46.140625 210.210938 51.300781 203.878906 51.300781 L 197.261719 51.300781 C 190.925781 51.300781 185.773438 46.140625 185.773438 39.800781 L 185.773438 30.527344 L 146.121094 30.527344 L 146.121094 39.800781 C 146.121094 46.140625 140.96875 51.300781 134.632812 51.300781 L 128.015625 51.300781 C 121.683594 51.300781 116.527344 46.140625 116.527344 39.800781 L 116.527344 30.527344 L 110.171875 30.527344 C 92.722656 30.527344 78.523438 44.742188 78.523438 62.210938 L 78.523438 105.648438 Z M 78.527344 105.648438 " fill-opacity="1" fill-rule="nonzero"/></g><path fill="#bfbfbf" d="M 137.542969 230.304688 L 173.707031 230.304688 L 173.707031 266.503906 L 137.542969 266.503906 Z M 137.542969 230.304688 " fill-opacity="1" fill-rule="nonzero"/><path fill="#251c75" d="M 173.707031 269.9375 L 137.542969 269.9375 C 135.652344 269.9375 134.117188 268.402344 134.117188 266.503906 L 134.117188 230.304688 C 134.117188 228.410156 135.652344 226.871094 137.542969 226.871094 L 173.707031 226.871094 C 175.597656 226.871094 177.132812 228.410156 177.132812 230.304688 L 177.132812 266.503906 C 177.132812 268.402344 175.597656 269.9375 173.707031 269.9375 Z M 140.972656 263.074219 L 170.277344 263.074219 L 170.277344 233.738281 L 140.972656 233.738281 Z M 140.972656 263.074219 " fill-opacity="1" fill-rule="nonzero"/><path fill="#bfbfbf" d="M 213.671875 230.304688 L 249.832031 230.304688 L 249.832031 266.503906 L 213.671875 266.503906 Z M 213.671875 230.304688 " fill-opacity="1" fill-rule="nonzero"/><path fill="#251c75" d="M 249.832031 269.9375 L 213.667969 269.9375 C 211.777344 269.9375 210.242188 268.402344 210.242188 266.503906 L 210.242188 230.304688 C 210.242188 228.410156 211.777344 226.871094 213.667969 226.871094 L 249.832031 226.871094 C 251.726562 226.871094 253.257812 228.410156 253.257812 230.304688 L 253.257812 266.503906 C 253.257812 268.402344 251.726562 269.9375 249.832031 269.9375 Z M 217.097656 263.074219 L 246.402344 263.074219 L 246.402344 233.738281 L 217.097656 233.738281 Z M 217.097656 263.074219 " fill-opacity="1" fill-rule="nonzero"/><path fill="#bfbfbf" d="M 289.796875 230.304688 L 325.957031 230.304688 L 325.957031 266.503906 L 289.796875 266.503906 Z M 289.796875 230.304688 " fill-opacity="1" fill-rule="nonzero"/><path fill="#251c75" d="M 325.957031 269.9375 L 289.796875 269.9375 C 287.902344 269.9375 286.367188 268.402344 286.367188 266.503906 L 286.367188 230.304688 C 286.367188 228.410156 287.902344 226.871094 289.796875 226.871094 L 325.957031 226.871094 C 327.851562 226.871094 329.386719 228.410156 329.386719 230.304688 L 329.386719 266.503906 C 329.386719 268.402344 327.851562 269.9375 325.957031 269.9375 Z M 293.222656 263.074219 L 322.527344 263.074219 L 322.527344 233.738281 L 293.222656 233.738281 Z M 293.222656 263.074219 " fill-opacity="1" fill-rule="nonzero"/><path fill="#bfbfbf" d="M 365.921875 230.304688 L 402.082031 230.304688 L 402.082031 266.503906 L 365.921875 266.503906 Z M 365.921875 230.304688 " fill-opacity="1" fill-rule="nonzero"/><path fill="#251c75" d="M 402.082031 269.9375 L 365.921875 269.9375 C 364.027344 269.9375 362.492188 268.402344 362.492188 266.503906 L 362.492188 230.304688 C 362.492188 228.410156 364.027344 226.871094 365.921875 226.871094 L 402.082031 226.871094 C 403.976562 226.871094 405.511719 228.410156 405.511719 230.304688 L 405.511719 266.503906 C 405.511719 268.402344 403.976562 269.9375 402.082031 269.9375 Z M 369.347656 263.074219 L 398.65625 263.074219 L 398.65625 233.738281 L 369.347656 233.738281 Z M 369.347656 263.074219 " fill-opacity="1" fill-rule="nonzero"/><path fill="#bfbfbf" d="M 137.542969 301.335938 L 173.707031 301.335938 L 173.707031 337.539062 L 137.542969 337.539062 Z M 137.542969 301.335938 " fill-opacity="1" fill-rule="nonzero"/><path fill="#251c75" d="M 173.707031 340.96875 L 137.542969 340.96875 C 135.652344 340.96875 134.117188 339.433594 134.117188 337.539062 L 134.117188 301.335938 C 134.117188 299.441406 135.652344 297.90625 137.542969 297.90625 L 173.707031 297.90625 C 175.597656 297.90625 177.132812 299.441406 177.132812 301.335938 L 177.132812 337.539062 C 177.132812 339.433594 175.597656 340.96875 173.707031 340.96875 Z M 140.972656 334.105469 L 170.277344 334.105469 L 170.277344 304.769531 L 140.972656 304.769531 Z M 140.972656 334.105469 " fill-opacity="1" fill-rule="nonzero"/><path fill="#bfbfbf" d="M 213.671875 301.335938 L 249.832031 301.335938 L 249.832031 337.539062 L 213.671875 337.539062 Z M 213.671875 301.335938 " fill-opacity="1" fill-rule="nonzero"/><path fill="#251c75" d="M 249.832031 340.96875 L 213.667969 340.96875 C 211.777344 340.96875 210.242188 339.433594 210.242188 337.539062 L 210.242188 301.335938 C 210.242188 299.441406 211.777344 297.90625 213.667969 297.90625 L 249.832031 297.90625 C 251.726562 297.90625 253.257812 299.441406 253.257812 301.335938 L 253.257812 337.539062 C 253.257812 339.433594 251.726562 340.96875 249.832031 340.96875 Z M 217.097656 334.105469 L 246.402344 334.105469 L 246.402344 304.769531 L 217.097656 304.769531 Z M 217.097656 334.105469 " fill-opacity="1" fill-rule="nonzero"/><path fill="#fed46f" d="M 307.875 296.148438 L 314.710938 310.015625 L 330 312.242188 L 318.9375 323.035156 L 321.550781 338.277344 L 307.875 331.082031 L 294.203125 338.277344 L 296.8125 323.035156 L 285.75 312.242188 L 301.039062 310.015625 Z M 307.875 296.148438 " fill-opacity="1" fill-rule="nonzero"/><path fill="#251c75" d="M 321.550781 341.710938 C 321.003906 341.710938 320.457031 341.578125 319.953125 341.316406 L 307.875 334.957031 L 295.796875 341.316406 C 294.640625 341.921875 293.242188 341.824219 292.1875 341.054688 C 291.132812 340.285156 290.601562 338.984375 290.824219 337.695312 L 293.128906 324.234375 L 283.359375 314.699219 C 282.425781 313.785156 282.085938 312.421875 282.492188 311.179688 C 282.894531 309.9375 283.96875 309.03125 285.257812 308.84375 L 298.761719 306.878906 L 304.800781 294.628906 C 305.378906 293.457031 306.570312 292.714844 307.875 292.714844 C 309.179688 292.714844 310.371094 293.457031 310.949219 294.628906 L 316.988281 306.878906 L 330.492188 308.84375 C 331.785156 309.03125 332.855469 309.9375 333.261719 311.179688 C 333.664062 312.421875 333.328125 313.785156 332.394531 314.699219 L 322.621094 324.234375 L 324.929688 337.695312 C 325.148438 338.984375 324.621094 340.285156 323.566406 341.054688 C 322.96875 341.488281 322.261719 341.710938 321.550781 341.710938 Z M 307.875 327.648438 C 308.425781 327.648438 308.972656 327.78125 309.472656 328.042969 L 316.996094 332.003906 L 315.558594 323.617188 C 315.367188 322.5 315.738281 321.367188 316.546875 320.578125 L 322.632812 314.636719 L 314.21875 313.414062 C 313.101562 313.25 312.136719 312.546875 311.640625 311.535156 L 307.875 303.902344 L 304.113281 311.535156 C 303.613281 312.546875 302.648438 313.25 301.53125 313.414062 L 293.117188 314.636719 L 299.207031 320.578125 C 300.015625 321.367188 300.382812 322.5 300.191406 323.617188 L 298.757812 332.003906 L 306.28125 328.042969 C 306.78125 327.78125 307.328125 327.648438 307.875 327.648438 Z M 307.875 327.648438 " fill-opacity="1" fill-rule="nonzero"/></svg>