<svg xmlns="http://www.w3.org/2000/svg" xmlns:xlink="http://www.w3.org/1999/xlink" width="720" zoomAndPan="magnify" viewBox="0 0 540 389.999986" height="520" preserveAspectRatio="xMidYMid meet" version="1.0"><path fill="#f7b6ad" d="M 257.703125 93.96875 C 256.210938 93.535156 254.707031 93.324219 253.230469 93.324219 C 245.933594 93.324219 239.28125 98.378906 237.640625 105.890625 C 236.984375 108.902344 236.25 112.085938 235.453125 115.21875 L 263.351562 138.683594 C 265.570312 128.917969 267.488281 119.605469 268.910156 112.359375 C 270.492188 104.253906 265.632812 96.277344 257.703125 93.96875 Z M 257.703125 93.96875 " fill-opacity="1" fill-rule="nonzero"/><path fill="#f7b6ad" d="M 251.683594 318.984375 C 250.570312 313.847656 250.757812 308.886719 251.683594 304.3125 C 251.683594 304.304688 251.683594 304.304688 251.683594 304.304688 C 251.304688 302.882812 226.730469 211.855469 226.730469 210.710938 C 234.023438 206.320312 242.179688 199.691406 247.480469 190.203125 C 248.175781 188.949219 248.878906 187.523438 249.574219 185.9375 L 249.628906 185.914062 C 260.339844 160.078125 251.570312 136.339844 230.539062 130.789062 C 229.859375 132.378906 229.171875 133.738281 228.46875 134.796875 C 226.128906 138.34375 223.136719 141.234375 219.820312 144.09375 L 198.019531 40.496094 C 196.574219 33.625 189.835938 29.21875 182.957031 30.664062 C 176.96875 31.933594 172.859375 37.210938 172.859375 43.097656 C 172.859375 43.957031 172.949219 44.820312 173.128906 45.695312 L 169.652344 29.160156 C 168.207031 22.289062 161.460938 17.882812 154.589844 19.328125 C 148.601562 20.597656 144.480469 25.882812 144.480469 31.761719 C 144.480469 32.628906 144.574219 33.507812 144.757812 34.390625 L 149.707031 57.878906 C 148.167969 51.128906 141.492188 46.839844 134.691406 48.269531 C 128.699219 49.527344 124.582031 54.8125 124.582031 60.699219 C 124.582031 61.566406 124.675781 62.449219 124.859375 63.328125 L 132.914062 101.601562 C 131.421875 94.484375 124.441406 89.933594 117.324219 91.433594 C 111.15625 92.730469 106.867188 98.164062 106.867188 104.289062 C 106.867188 104.917969 106.914062 105.558594 107.007812 106.199219 C 107.511719 109.589844 108.105469 113.539062 108.800781 117.890625 L 174.710938 269.453125 L 174.710938 269.460938 L 177.695312 276.59375 L 186.984375 283.5625 L 186.984375 326.972656 L 211.667969 386.753906 L 241.652344 386.753906 C 241.652344 364.105469 246.453125 343.675781 254.15625 325.816406 C 253.050781 323.683594 252.203125 321.40625 251.683594 318.984375 Z M 251.683594 318.984375 " fill-opacity="1" fill-rule="nonzero"/><path fill="#ffc05a" d="M 347.511719 247.207031 C 347.0625 247.546875 333.359375 218.699219 313.542969 218.699219 C 293.445312 218.699219 273.625 245.925781 273.625 245.925781 C 273.625 245.925781 260.53125 249.828125 261.785156 266.878906 C 262.054688 270.535156 263.484375 274.546875 265.578125 278.578125 C 265.578125 278.578125 254.707031 289.429688 251.683594 304.304688 C 251.683594 304.304688 251.683594 304.304688 251.683594 304.3125 C 250.757812 308.886719 250.570312 313.847656 251.683594 318.984375 C 252.203125 321.40625 253.050781 323.683594 254.15625 325.816406 C 246.453125 343.675781 241.652344 364.105469 241.652344 386.753906 L 345.734375 386.753906 C 389.066406 359.976562 415.4375 253.464844 365.742188 266.886719 C 365.742188 266.878906 365.742188 266.878906 365.742188 266.878906 Z M 347.511719 247.207031 " fill-opacity="1" fill-rule="nonzero"/><path fill="#fec4b9" d="M 362.007812 99.746094 C 355.632812 99.003906 349.867188 103.570312 349.125 109.945312 L 353.105469 75.644531 C 353.160156 75.207031 353.183594 74.765625 353.183594 74.332031 C 353.183594 68.714844 348.972656 63.863281 343.253906 63.203125 C 337.109375 62.484375 331.550781 66.875 330.808594 73.011719 L 333.269531 51.824219 C 333.320312 51.382812 333.34375 50.941406 333.34375 50.507812 C 333.34375 44.890625 329.125 40.039062 323.40625 39.375 C 317.246094 38.664062 311.675781 43.074219 310.964844 49.234375 L 309.25 64.046875 C 309.296875 63.621094 309.320312 63.195312 309.320312 62.78125 C 309.320312 57.160156 305.097656 52.300781 299.378906 51.636719 C 293.222656 50.925781 287.648438 55.339844 286.9375 61.496094 L 276.15625 154.347656 C 273.011719 152.097656 270.144531 149.804688 267.804688 146.875 C 266.367188 145.082031 264.84375 142.15625 263.351562 138.683594 C 261.210938 133.722656 259.125 127.652344 257.394531 122.203125 C 255.484375 116.160156 249.914062 112.359375 243.964844 112.359375 C 242.238281 112.359375 240.492188 112.675781 238.792969 113.347656 C 237.574219 113.828125 236.460938 114.460938 235.453125 115.21875 C 230.886719 118.671875 228.746094 124.683594 230.433594 130.417969 C 230.46875 130.539062 230.5 130.664062 230.539062 130.789062 C 234.898438 145.585938 242.488281 169.980469 249.628906 185.914062 C 251.675781 190.488281 253.691406 194.367188 255.578125 197.125 C 261.003906 205.054688 268.714844 210.214844 275.476562 213.484375 C 275.539062 213.925781 274.734375 227.59375 273.625 245.925781 C 273.625 245.925781 291.035156 259.277344 311.136719 259.277344 C 330.949219 259.277344 347.0625 247.546875 347.511719 247.207031 L 360.214844 195.695312 C 367.972656 176.890625 371.171875 132.535156 372.277344 111.902344 C 372.285156 111.695312 372.292969 111.484375 372.292969 111.277344 C 372.292969 105.417969 367.898438 100.425781 362.007812 99.746094 Z M 362.007812 99.746094 " fill-opacity="1" fill-rule="nonzero"/><path fill="#655f68" d="M 198.570312 282.113281 L 211.667969 386.753906 L 119.71875 386.753906 L 108.035156 293.449219 L 119.613281 291.996094 C 138.320312 283.601562 161.164062 281.367188 186.984375 283.5625 Z M 198.570312 282.113281 " fill-opacity="1" fill-rule="nonzero"/><path fill="#e7f2f1" d="M 185.0625 268.164062 L 186.984375 283.5625 L 119.613281 291.996094 L 117.6875 276.59375 C 132.097656 256.675781 150.773438 253.039062 174.710938 269.460938 Z M 185.0625 268.164062 " fill-opacity="1" fill-rule="nonzero"/><path fill="#ffd7d2" d="M 198.886719 170.992188 C 197.929688 170.769531 196.984375 170.652344 196.042969 170.644531 C 195.996094 170.636719 195.941406 170.636719 195.894531 170.636719 C 189.804688 170.636719 184.351562 175.027344 183.289062 181.316406 C 181.839844 190.015625 179.660156 200.457031 177.078125 204.824219 C 175.339844 207.75 173.058594 210.1875 170.515625 212.605469 L 170.507812 212.597656 L 149.015625 130.5 C 148.949219 130.238281 148.871094 129.984375 148.785156 129.730469 C 147.15625 125.023438 142.324219 122.179688 137.425781 123.046875 C 137.148438 123.089844 136.859375 123.152344 136.582031 123.222656 C 132 124.421875 128.964844 128.546875 128.964844 133.066406 C 128.964844 133.925781 129.078125 134.796875 129.304688 135.664062 L 125.863281 122.527344 C 124.433594 117.085938 118.863281 113.828125 113.421875 115.25 C 111.605469 115.726562 110.039062 116.664062 108.800781 117.890625 L 108.800781 117.898438 C 106.914062 119.777344 105.800781 122.363281 105.800781 125.101562 C 105.800781 125.949219 105.917969 126.824219 106.140625 127.6875 L 111.058594 146.472656 C 109.628906 141.027344 104.0625 137.765625 98.617188 139.195312 C 94.03125 140.394531 91.003906 144.527344 91.003906 149.046875 C 91.003906 149.90625 91.113281 150.769531 91.335938 151.636719 L 99.273438 181.964844 C 97.796875 176.324219 92.03125 172.957031 86.398438 174.421875 C 81.683594 175.660156 78.515625 179.917969 78.515625 184.617188 C 78.515625 185.289062 78.585938 185.976562 78.714844 186.65625 C 82.554688 206.230469 91.945312 249.625 102 263.1875 C 106.921875 269.832031 112.558594 273.953125 117.679688 276.507812 L 117.6875 276.59375 L 174.710938 269.460938 L 174.710938 269.453125 C 180.910156 265.4375 189.472656 258.480469 194.449219 248.4375 C 200.523438 236.195312 205.980469 203.03125 208.578125 185.273438 C 209.535156 178.726562 205.332031 172.53125 198.886719 170.992188 Z M 198.886719 170.992188 " fill-opacity="1" fill-rule="nonzero"/><path fill="#ffd7d2" d="M 453.445312 171.261719 C 447.742188 170.066406 442.148438 173.710938 440.949219 179.414062 L 440.941406 179.414062 L 447.402344 148.738281 C 447.550781 148.027344 447.625 147.324219 447.625 146.628906 C 447.625 141.90625 444.328125 137.679688 439.527344 136.667969 C 434.164062 135.539062 428.902344 138.847656 427.550781 144.09375 L 431.453125 125.539062 C 431.597656 124.835938 431.675781 124.125 431.675781 123.4375 C 431.675781 118.71875 428.375 114.484375 423.578125 113.472656 C 418.066406 112.3125 412.65625 115.835938 411.5 121.34375 L 408.753906 134.375 C 408.871094 133.753906 408.933594 133.128906 408.933594 132.527344 C 408.933594 127.804688 405.632812 123.570312 400.824219 122.558594 C 395.324219 121.398438 389.914062 124.921875 388.753906 130.433594 L 371.28125 213.476562 C 368.625 211.183594 366.226562 208.871094 364.351562 206.027344 C 362.914062 203.847656 361.507812 200.046875 360.214844 195.695312 C 359.011719 191.609375 357.914062 187.027344 357 182.855469 C 355.6875 176.835938 350.355469 172.785156 344.503906 172.785156 C 343.320312 172.785156 342.117188 172.957031 340.917969 173.304688 C 334.558594 175.148438 330.664062 181.539062 331.9375 188.039062 C 333.546875 196.238281 335.925781 207.726562 338.691406 218.878906 C 341.398438 229.789062 344.464844 240.367188 347.511719 247.207031 C 348.042969 248.40625 348.578125 249.488281 349.109375 250.4375 C 353.359375 258.046875 359.898438 263.363281 365.742188 266.878906 C 365.742188 266.878906 365.742188 266.878906 365.742188 266.886719 C 365.855469 267.667969 345.734375 386.753906 345.734375 386.753906 L 417 386.753906 L 425.160156 275.804688 C 425.679688 275.550781 426.203125 275.28125 426.738281 274.988281 C 431.847656 272.191406 437.449219 267.746094 442.179688 260.683594 C 451.558594 246.644531 458.824219 202.84375 461.707031 183.109375 C 461.785156 182.589844 461.824219 182.074219 461.824219 181.5625 C 461.824219 176.65625 458.382812 172.304688 453.445312 171.261719 Z M 453.445312 171.261719 " fill-opacity="1" fill-rule="nonzero"/><path fill="#5d5560" d="M 198.570312 282.113281 L 211.667969 386.753906 L 119.71875 386.753906 C 201.675781 383.261719 198.570312 282.113281 198.570312 282.113281 Z M 198.570312 282.113281 " fill-opacity="1" fill-rule="nonzero"/><path fill="#f9b132" d="M 349.109375 250.4375 C 348.578125 249.488281 348.042969 248.40625 347.511719 247.207031 C 347.308594 247.363281 344.023438 249.757812 338.691406 252.367188 C 338.691406 252.367188 340.988281 265.488281 339.328125 283.828125 C 336.367188 316.519531 320.804688 365.796875 257.15625 386.753906 L 345.734375 386.753906 C 345.734375 386.753906 365.855469 267.667969 365.742188 266.886719 C 365.742188 266.878906 365.742188 266.878906 365.742188 266.878906 C 359.898438 263.363281 353.359375 258.046875 349.109375 250.4375 Z M 349.109375 250.4375 " fill-opacity="1" fill-rule="nonzero"/><path fill="#fec4b9" d="M 425.160156 275.804688 L 417 386.753906 L 355.742188 386.753906 C 411.691406 348.960938 411.746094 279.683594 411.746094 279.683594 C 411.746094 279.683594 417.742188 279.460938 425.160156 275.804688 Z M 425.160156 275.804688 " fill-opacity="1" fill-rule="nonzero"/><path fill="#3a322b" d="M 271.324219 77.257812 C 273.03125 77.257812 274.414062 75.875 274.414062 74.167969 L 274.414062 3.480469 C 274.414062 1.773438 273.03125 0.390625 271.324219 0.390625 C 269.617188 0.390625 268.234375 1.773438 268.234375 3.480469 L 268.234375 74.167969 C 268.234375 75.875 269.617188 77.257812 271.324219 77.257812 Z M 271.324219 77.257812 " fill-opacity="1" fill-rule="nonzero"/><path fill="#3a322b" d="M 385.832031 82.429688 C 386.160156 82.542969 386.492188 82.59375 386.820312 82.59375 C 388.109375 82.59375 389.316406 81.78125 389.75 80.492188 L 415.425781 4.46875 C 415.96875 2.851562 415.101562 1.097656 413.484375 0.550781 C 411.867188 0.00390625 410.113281 0.875 409.566406 2.492188 L 383.890625 78.515625 C 383.347656 80.132812 384.214844 81.886719 385.832031 82.429688 Z M 385.832031 82.429688 " fill-opacity="1" fill-rule="nonzero"/><path fill="#3a322b" d="M 416.679688 85.3125 C 417.191406 85.628906 417.753906 85.777344 418.3125 85.777344 C 419.34375 85.777344 420.355469 85.261719 420.941406 84.320312 L 447.472656 41.734375 C 448.378906 40.285156 447.933594 38.378906 446.484375 37.476562 C 445.035156 36.570312 443.128906 37.015625 442.226562 38.464844 L 415.691406 81.054688 C 414.789062 82.503906 415.234375 84.410156 416.679688 85.3125 Z M 416.679688 85.3125 " fill-opacity="1" fill-rule="nonzero"/><path fill="#3a322b" d="M 232.203125 74.683594 C 232.457031 76.191406 233.765625 77.257812 235.246094 77.257812 C 235.417969 77.257812 235.589844 77.246094 235.765625 77.214844 C 237.449219 76.929688 238.582031 75.332031 238.296875 73.652344 L 227.808594 11.800781 C 227.523438 10.117188 225.929688 8.984375 224.246094 9.269531 C 222.5625 9.554688 221.429688 11.152344 221.714844 12.832031 Z M 232.203125 74.683594 " fill-opacity="1" fill-rule="nonzero"/><path fill="#3a322b" d="M 125.988281 36.128906 C 126.375 37.488281 127.617188 38.378906 128.964844 38.378906 C 129.242188 38.378906 129.523438 38.34375 129.804688 38.261719 C 131.449219 37.800781 132.40625 36.089844 131.941406 34.449219 L 122.957031 2.640625 C 122.492188 1 120.78125 0.0390625 119.140625 0.507812 C 117.496094 0.96875 116.542969 2.679688 117.003906 4.320312 Z M 125.988281 36.128906 " fill-opacity="1" fill-rule="nonzero"/><path fill="#3a322b" d="M 454.078125 168.242188 C 451.445312 167.6875 448.769531 167.917969 446.324219 168.878906 L 450.425781 149.375 C 451.15625 145.902344 450.492188 142.355469 448.550781 139.382812 C 446.613281 136.410156 443.632812 134.371094 440.160156 133.640625 C 437.605469 133.105469 435.066406 133.355469 432.785156 134.210938 L 434.472656 126.179688 C 435.980469 119.011719 431.378906 111.957031 424.210938 110.445312 C 417.039062 108.941406 409.984375 113.542969 408.476562 120.710938 L 407.992188 123.019531 C 406.207031 121.273438 403.96875 120.0625 401.464844 119.535156 C 394.300781 118.027344 387.238281 122.632812 385.734375 129.796875 L 369.398438 207.433594 C 368.492188 206.449219 367.660156 205.433594 366.929688 204.328125 C 366.222656 203.257812 365.042969 200.90625 363.484375 195.828125 C 370.9375 176.554688 374.121094 135.25 375.363281 112.0625 C 375.777344 104.328125 370.070312 97.570312 362.367188 96.675781 C 359.28125 96.316406 356.242188 96.9375 353.582031 98.414062 L 356.179688 76.003906 C 357.089844 68.164062 351.449219 61.042969 343.605469 60.132812 C 340.675781 59.789062 337.78125 60.355469 335.234375 61.71875 L 336.339844 52.175781 C 337.25 44.332031 331.609375 37.214844 323.765625 36.304688 C 315.933594 35.390625 308.804688 41.03125 307.894531 48.875 L 307.527344 52.03125 C 305.359375 50.121094 302.671875 48.90625 299.738281 48.566406 C 291.898438 47.65625 284.773438 53.296875 283.867188 61.140625 L 273.722656 148.546875 C 272.4375 147.433594 271.265625 146.257812 270.214844 144.945312 C 269.160156 143.628906 267.9375 141.390625 266.589844 138.371094 C 268.398438 130.367188 270.199219 121.824219 271.9375 112.953125 C 273.851562 103.214844 268.101562 93.78125 258.566406 91.003906 C 253.511719 89.53125 248.019531 90.230469 243.496094 92.917969 C 238.976562 95.605469 235.742188 100.089844 234.621094 105.230469 C 233.984375 108.152344 233.339844 110.914062 232.703125 113.472656 C 227.917969 117.589844 225.707031 124.097656 227.28125 130.515625 C 226.796875 131.558594 226.332031 132.429688 225.890625 133.097656 C 224.691406 134.917969 223.28125 136.550781 221.726562 138.125 L 201.046875 39.855469 C 200.179688 35.726562 197.75 32.179688 194.214844 29.875 C 190.679688 27.566406 186.457031 26.773438 182.324219 27.644531 C 178.871094 28.371094 175.835938 30.199219 173.582031 32.839844 L 172.671875 28.519531 C 171.804688 24.386719 169.378906 20.84375 165.84375 18.535156 C 162.304688 16.230469 158.082031 15.4375 153.949219 16.308594 C 149.820312 17.175781 146.273438 19.601562 143.964844 23.136719 C 141.660156 26.675781 140.867188 30.898438 141.738281 35.027344 L 144.144531 46.476562 C 141.019531 44.964844 137.503906 44.515625 134.050781 45.242188 C 125.523438 47.035156 120.042969 55.433594 121.835938 63.964844 L 127.265625 89.761719 C 124.003906 88.132812 120.3125 87.640625 116.691406 88.40625 C 108.308594 90.167969 102.710938 98.183594 103.953125 106.648438 C 104.453125 110.082031 104.984375 113.542969 105.527344 116.96875 C 103.082031 120.121094 102.0625 124.324219 103.148438 128.472656 L 105.226562 136.402344 C 102.847656 135.640625 100.304688 135.554688 97.832031 136.203125 C 90.746094 138.058594 86.488281 145.332031 88.34375 152.414062 L 93.394531 171.695312 C 90.902344 170.859375 88.21875 170.757812 85.613281 171.4375 C 78.660156 173.257812 74.296875 180.203125 75.679688 187.253906 C 80.234375 210.429688 89.382812 251.355469 99.515625 265.027344 C 103.742188 270.730469 108.886719 275.238281 114.808594 278.476562 L 116.164062 289.3125 L 107.648438 290.378906 C 105.957031 290.589844 104.753906 292.136719 104.964844 293.828125 L 116.648438 387.136719 C 116.859375 388.832031 118.394531 390.03125 120.101562 389.820312 C 121.792969 389.609375 122.996094 388.0625 122.785156 386.371094 L 111.484375 296.128906 L 195.886719 285.5625 L 208.605469 387.136719 C 208.800781 388.703125 210.132812 389.84375 211.667969 389.84375 C 211.796875 389.84375 211.925781 389.835938 212.054688 389.820312 C 213.75 389.609375 214.949219 388.0625 214.738281 386.371094 L 201.636719 281.726562 C 201.425781 280.035156 199.886719 278.835938 198.183594 279.042969 L 189.671875 280.109375 L 188.125 267.777344 C 188.023438 266.964844 187.605469 266.222656 186.957031 265.71875 C 186.507812 265.371094 185.972656 265.167969 185.417969 265.101562 C 189.804688 261.09375 194.140625 256.019531 197.222656 249.808594 C 203.441406 237.273438 208.921875 204.277344 211.632812 185.722656 C 212.761719 178 208.222656 170.78125 200.945312 168.371094 C 201.832031 166.9375 202.769531 165.53125 203.75 164.160156 C 208.367188 157.714844 213.527344 153.410156 218.515625 149.242188 C 222.597656 145.835938 226.480469 142.585938 229.617188 138.5 C 234.023438 153.046875 240.21875 172.105469 246.222656 185.84375 C 245.730469 186.898438 245.246094 187.855469 244.78125 188.695312 C 239.816406 197.589844 232.144531 203.84375 225.144531 208.058594 C 225.140625 208.0625 225.132812 208.0625 225.125 208.066406 C 225.117188 208.070312 225.109375 208.078125 225.101562 208.082031 C 222.964844 209.367188 220.890625 210.46875 218.980469 211.386719 C 217.441406 212.128906 216.792969 213.972656 217.53125 215.511719 C 218.0625 216.621094 219.167969 217.265625 220.320312 217.265625 C 220.769531 217.265625 221.222656 217.167969 221.65625 216.960938 C 222.632812 216.492188 223.65625 215.96875 224.699219 215.414062 C 224.710938 215.460938 224.722656 215.503906 224.734375 215.550781 C 225.398438 218.125 226.363281 221.796875 227.527344 226.195312 C 229.585938 233.96875 232.480469 244.796875 236.121094 258.375 C 241.75 279.351562 247.402344 300.296875 248.507812 304.390625 C 247.632812 309.144531 247.503906 314.28125 248.65625 319.636719 C 249.132812 321.84375 249.851562 323.9375 250.761719 325.921875 C 242.675781 345.152344 238.5625 365.609375 238.5625 386.753906 C 238.5625 388.460938 239.949219 389.847656 241.65625 389.847656 C 243.363281 389.847656 244.746094 388.460938 244.746094 386.753906 C 244.746094 367.980469 248.121094 349.777344 254.761719 332.546875 C 265.644531 346.964844 285.953125 353.8125 287.027344 354.167969 C 287.351562 354.273438 287.675781 354.324219 287.996094 354.324219 C 289.296875 354.324219 290.503906 353.5 290.933594 352.199219 C 291.464844 350.578125 290.585938 348.828125 288.960938 348.296875 C 288.664062 348.199219 258.988281 338.210938 254.703125 318.335938 C 251.484375 303.410156 260.355469 289.824219 265.054688 283.898438 C 273.304688 297.53125 286.6875 310.019531 287.480469 310.75 C 288.078125 311.300781 288.828125 311.570312 289.578125 311.570312 C 290.410156 311.570312 291.238281 311.238281 291.847656 310.578125 C 293.007812 309.328125 292.933594 307.371094 291.679688 306.210938 C 291.476562 306.027344 275.417969 290.695312 268.125 276.839844 C 266.324219 273.289062 265.097656 269.804688 264.867188 266.652344 C 264.035156 255.316406 270.382812 250.851562 273.207031 249.4375 C 277.949219 252.71875 293.402344 262.371094 311.132812 262.371094 C 327.039062 262.371094 340.480469 255.316406 346.292969 251.726562 C 346.332031 251.796875 346.371094 251.878906 346.410156 251.949219 C 350.164062 258.667969 355.511719 263.683594 360.734375 267.332031 C 350.675781 276.375 339.75 281.722656 327.441406 283.621094 C 325.753906 283.882812 324.597656 285.460938 324.855469 287.148438 C 325.09375 288.675781 326.410156 289.769531 327.90625 289.769531 C 328.066406 289.769531 328.222656 289.757812 328.382812 289.730469 C 340.304688 287.894531 351.359375 282.917969 361.347656 274.917969 C 357.65625 297.460938 347.183594 359.613281 342.6875 386.242188 C 342.402344 387.925781 343.535156 389.519531 345.21875 389.804688 C 345.394531 389.832031 345.566406 389.847656 345.738281 389.847656 C 347.21875 389.847656 348.527344 388.78125 348.78125 387.269531 C 348.78125 387.269531 353.839844 357.335938 358.867188 327.378906 C 361.382812 312.402344 363.890625 297.417969 365.753906 286.171875 C 366.6875 280.546875 367.460938 275.851562 367.992188 272.5625 C 368.039062 272.28125 368.082031 272.019531 368.125 271.757812 C 373.371094 274.433594 377.402344 275.59375 377.777344 275.699219 C 378.058594 275.777344 378.335938 275.8125 378.613281 275.8125 C 379.960938 275.8125 381.203125 274.921875 381.585938 273.554688 C 382.046875 271.914062 381.089844 270.207031 379.449219 269.746094 C 379.257812 269.691406 360.328125 264.199219 351.808594 248.9375 C 347.128906 240.554688 340.992188 218.144531 334.964844 187.449219 C 333.992188 182.492188 336.921875 177.6875 341.777344 176.269531 C 344.386719 175.511719 347.113281 175.855469 349.453125 177.246094 C 351.789062 178.636719 353.394531 180.863281 353.972656 183.515625 C 356.65625 195.8125 359.277344 203.964844 361.765625 207.734375 C 364.492188 211.871094 368.105469 214.886719 371.933594 218.082031 C 375.902344 221.394531 380.007812 224.824219 383.664062 229.925781 C 390.582031 239.582031 392.324219 247.992188 392.339844 248.070312 C 392.667969 249.746094 394.292969 250.839844 395.964844 250.511719 C 397.640625 250.183594 398.734375 248.5625 398.40625 246.886719 C 398.332031 246.492188 396.441406 237.144531 388.6875 226.324219 C 384.574219 220.582031 379.960938 216.734375 375.894531 213.335938 C 375.484375 212.992188 375.078125 212.65625 374.679688 212.320312 L 391.777344 131.074219 C 392.585938 127.242188 396.359375 124.78125 400.1875 125.585938 C 402.046875 125.976562 403.640625 127.066406 404.675781 128.65625 C 405.710938 130.242188 406.066406 132.140625 405.675781 133.996094 L 393.664062 191.09375 C 391.09375 191.289062 389.449219 191.546875 389.230469 191.582031 C 387.542969 191.855469 386.398438 193.441406 386.667969 195.125 C 386.941406 196.8125 388.523438 197.960938 390.214844 197.6875 C 390.382812 197.660156 407.121094 195.046875 419.894531 200.609375 C 432.210938 205.972656 436.851562 217.914062 436.894531 218.023438 C 437.355469 219.269531 438.535156 220.039062 439.789062 220.039062 C 440.148438 220.039062 440.511719 219.972656 440.867188 219.84375 C 442.46875 219.246094 443.28125 217.46875 442.6875 215.867188 C 442.578125 215.578125 441.230469 212.058594 438.128906 207.796875 L 443.964844 180.058594 C 443.964844 180.058594 443.96875 180.054688 443.96875 180.054688 C 444.378906 178.105469 445.523438 176.433594 447.191406 175.34375 C 448.859375 174.253906 450.851562 173.882812 452.800781 174.292969 C 456.648438 175.101562 459.21875 178.777344 458.648438 182.664062 C 455.957031 201.0625 448.710938 245.332031 439.601562 258.964844 C 435.78125 264.679688 430.953125 269.15625 425.253906 272.273438 C 417.929688 276.28125 411.675781 276.601562 411.625 276.601562 C 409.917969 276.664062 408.585938 278.101562 408.652344 279.804688 C 408.710938 281.472656 410.082031 282.78125 411.738281 282.78125 C 411.777344 282.78125 411.816406 282.78125 411.855469 282.78125 C 412.082031 282.769531 416.132812 282.585938 421.703125 280.609375 L 413.914062 386.53125 C 413.789062 388.230469 415.066406 389.714844 416.769531 389.839844 C 416.847656 389.84375 416.921875 389.847656 417 389.847656 C 418.605469 389.847656 419.960938 388.609375 420.078125 386.984375 L 428.113281 277.753906 C 428.148438 277.734375 428.183594 277.71875 428.21875 277.699219 C 434.804688 274.097656 440.363281 268.949219 444.742188 262.398438 C 454.199219 248.25 461.347656 206.929688 464.765625 183.558594 C 465.808594 176.449219 461.113281 169.722656 454.078125 168.242188 Z M 149.144531 26.515625 C 150.550781 24.363281 152.707031 22.886719 155.222656 22.355469 C 157.742188 21.824219 160.3125 22.308594 162.464844 23.714844 C 164.617188 25.117188 166.09375 27.277344 166.625 29.792969 L 184.898438 116.632812 C 179.328125 116.59375 172.484375 117.023438 165.648438 118.640625 L 147.789062 33.757812 C 147.257812 31.238281 147.738281 28.667969 149.144531 26.515625 Z M 135.324219 51.292969 C 137.84375 50.765625 140.410156 51.246094 142.5625 52.648438 C 144.71875 54.054688 146.195312 56.214844 146.722656 58.730469 L 146.726562 58.730469 L 159.695312 120.371094 C 158.585938 120.765625 157.484375 121.195312 156.398438 121.664062 C 154.132812 122.652344 151.949219 123.847656 149.859375 125.207031 C 148.800781 123.769531 147.457031 122.546875 145.871094 121.617188 C 144.023438 120.535156 141.988281 119.9375 139.910156 119.820312 L 135.941406 100.964844 C 135.941406 100.964844 135.941406 100.960938 135.941406 100.960938 C 135.941406 100.960938 135.941406 100.957031 135.9375 100.957031 L 127.886719 62.691406 C 126.796875 57.5 130.132812 52.386719 135.324219 51.292969 Z M 117.960938 94.453125 C 120.59375 93.902344 123.285156 94.40625 125.539062 95.875 C 127.789062 97.34375 129.335938 99.601562 129.890625 102.230469 L 133.824219 120.933594 C 132.136719 121.675781 130.660156 122.738281 129.453125 124.039062 L 128.851562 121.746094 C 127.953125 118.3125 125.773438 115.4375 122.707031 113.644531 C 119.644531 111.851562 116.066406 111.359375 112.636719 112.261719 C 112.117188 112.398438 111.617188 112.570312 111.128906 112.765625 C 110.765625 110.425781 110.410156 108.085938 110.070312 105.757812 C 109.300781 100.511719 112.769531 95.546875 117.960938 94.453125 Z M 114.203125 118.242188 C 117.988281 117.25 121.878906 119.523438 122.871094 123.3125 L 140.695312 191.398438 C 136.507812 191.617188 131.542969 192.203125 126.582031 193.570312 L 109.128906 126.910156 C 108.140625 123.121094 110.414062 119.230469 114.203125 118.242188 Z M 95.066406 145.464844 C 96.023438 143.828125 97.5625 142.664062 99.398438 142.183594 C 101.230469 141.699219 103.144531 141.964844 104.78125 142.921875 C 106.414062 143.878906 107.578125 145.410156 108.0625 147.238281 L 120.71875 195.59375 C 120 195.894531 119.289062 196.214844 118.585938 196.5625 C 114.347656 198.660156 110.960938 201.355469 108.277344 204.136719 L 94.328125 150.847656 C 93.84375 149.015625 94.109375 147.105469 95.066406 145.464844 Z M 122.300781 288.542969 L 121.140625 279.277344 L 175.128906 272.519531 C 175.140625 272.515625 175.152344 272.515625 175.167969 272.515625 L 182.375 271.613281 L 183.535156 280.878906 Z M 205.515625 184.828125 C 200.992188 215.78125 195.949219 238.464844 191.683594 247.0625 C 187.179688 256.148438 179.488281 262.578125 173.613281 266.476562 L 118.398438 273.390625 C 113.003906 270.5625 108.320312 266.527344 104.484375 261.347656 C 94.71875 248.175781 85.332031 204.308594 81.746094 186.0625 C 80.992188 182.210938 83.375 178.414062 87.179688 177.417969 C 89.105469 176.910156 91.117188 177.1875 92.835938 178.195312 C 94.554688 179.203125 95.78125 180.816406 96.285156 182.742188 C 96.285156 182.746094 96.285156 182.746094 96.285156 182.75 L 103.464844 210.167969 C 100.570312 214.578125 99.398438 218.15625 99.304688 218.449219 C 98.789062 220.074219 99.683594 221.804688 101.304688 222.324219 C 101.621094 222.425781 101.9375 222.472656 102.25 222.472656 C 103.554688 222.472656 104.769531 221.636719 105.195312 220.332031 C 105.234375 220.210938 109.289062 208.058594 121.328125 202.105469 C 133.773438 195.945312 150.664062 197.722656 150.835938 197.742188 C 152.527344 197.929688 154.058594 196.707031 154.246094 195.011719 C 154.4375 193.316406 153.214844 191.785156 151.519531 191.597656 C 151.300781 191.574219 149.644531 191.398438 147.066406 191.324219 L 132.289062 134.878906 L 132.292969 134.878906 C 131.300781 131.09375 133.574219 127.203125 137.363281 126.210938 C 139.195312 125.734375 141.113281 125.996094 142.75 126.953125 C 144.386719 127.910156 145.550781 129.449219 146.03125 131.28125 L 167.058594 211.605469 C 166.679688 211.957031 166.292969 212.3125 165.898438 212.675781 C 162 216.269531 157.582031 220.335938 153.75 226.273438 C 146.53125 237.457031 145.101562 246.886719 145.042969 247.28125 C 144.796875 248.96875 145.964844 250.53125 147.648438 250.78125 C 149.34375 251.03125 150.90625 249.863281 151.160156 248.175781 C 151.171875 248.09375 152.503906 239.605469 158.945312 229.625 C 162.347656 224.351562 166.28125 220.726562 170.085938 217.222656 C 173.75 213.847656 177.214844 210.660156 179.738281 206.398438 C 182.039062 202.507812 184.261719 194.242188 186.34375 181.828125 C 186.792969 179.148438 188.285156 176.84375 190.550781 175.34375 C 192.820312 173.84375 195.523438 173.363281 198.171875 173.996094 C 203.089844 175.175781 206.246094 179.832031 205.515625 184.828125 Z M 214.554688 144.5 C 209.515625 148.707031 203.800781 153.476562 198.726562 160.558594 C 197.085938 162.847656 195.5625 165.234375 194.171875 167.667969 C 191.679688 167.945312 189.257812 168.785156 187.136719 170.191406 C 183.480469 172.613281 180.96875 176.480469 180.242188 180.804688 C 177.683594 196.09375 175.492188 201.425781 174.417969 203.246094 C 173.742188 204.386719 172.960938 205.441406 172.105469 206.464844 L 152.34375 130.976562 C 154.410156 129.550781 156.59375 128.324219 158.867188 127.332031 C 174.964844 120.324219 196.113281 123.597656 196.324219 123.632812 C 198.003906 123.902344 199.59375 122.757812 199.867188 121.070312 C 200.140625 119.386719 198.992188 117.800781 197.304688 117.527344 C 197.023438 117.484375 194.761719 117.132812 191.265625 116.882812 L 176.160156 45.09375 C 175.632812 42.578125 176.113281 40.007812 177.519531 37.851562 C 178.925781 35.699219 181.082031 34.222656 183.597656 33.695312 C 188.792969 32.597656 193.90625 35.9375 195 41.128906 L 216.417969 142.933594 C 215.808594 143.449219 215.1875 143.96875 214.554688 144.5 Z M 333.875 73.417969 C 334.125 71.257812 335.203125 69.328125 336.90625 67.976562 C 338.609375 66.628906 340.734375 66.023438 342.894531 66.273438 C 347.351562 66.789062 350.554688 70.835938 350.039062 75.292969 L 346.058594 109.59375 L 342.980469 136.113281 C 339.570312 133.382812 335.34375 130.84375 330.21875 129.148438 C 329.320312 128.851562 328.414062 128.59375 327.5 128.355469 Z M 314.035156 49.585938 C 314.550781 45.132812 318.601562 41.929688 323.054688 42.445312 C 327.511719 42.960938 330.714844 47.007812 330.199219 51.464844 L 321.410156 127.171875 C 315.550781 126.386719 309.792969 126.53125 305.054688 126.976562 Z M 240.664062 106.546875 C 241.429688 103.027344 243.558594 100.074219 246.65625 98.230469 C 249.757812 96.390625 253.375 95.929688 256.839844 96.9375 C 263.28125 98.816406 267.164062 105.1875 265.875 111.761719 C 264.785156 117.304688 263.675781 122.714844 262.554688 127.945312 C 261.832031 125.867188 261.09375 123.640625 260.34375 121.269531 C 258.914062 116.746094 255.636719 112.984375 251.355469 110.945312 C 247.792969 109.25 243.746094 108.847656 239.945312 109.757812 C 240.183594 108.707031 240.425781 107.640625 240.664062 106.546875 Z M 270.65625 243.777344 C 265.199219 246.375 257.703125 253.503906 258.699219 267.101562 C 258.953125 270.574219 260.140625 274.28125 261.882812 278.019531 C 259.601562 280.617188 255.230469 286.128906 251.960938 293.449219 C 243.375 261.601562 232.613281 221.503906 230.246094 212.160156 C 237.140625 207.722656 244.398438 201.4375 249.511719 192.824219 C 250.710938 195.167969 251.890625 197.214844 253.027344 198.871094 C 258.351562 206.640625 265.640625 211.886719 272.316406 215.367188 C 272.164062 218.347656 271.742188 225.816406 270.65625 243.777344 Z M 360.523438 184.464844 C 360.355469 183.730469 360.1875 182.980469 360.019531 182.195312 C 359.082031 177.914062 356.386719 174.171875 352.617188 171.929688 C 348.84375 169.6875 344.265625 169.109375 340.050781 170.335938 C 332.101562 172.648438 327.308594 180.519531 328.902344 188.636719 C 330.4375 196.457031 332.601562 206.863281 335.101562 217.183594 C 330.347656 219.3125 326.859375 219.808594 326.828125 219.8125 C 325.136719 220.035156 323.941406 221.585938 324.164062 223.277344 C 324.363281 224.835938 325.691406 225.96875 327.222656 225.96875 C 327.355469 225.96875 327.492188 225.960938 327.625 225.945312 C 327.8125 225.921875 331.503906 225.417969 336.621094 223.257812 C 338.832031 231.828125 341.242188 239.953125 343.683594 246.050781 C 338.914062 249.070312 326.074219 256.1875 311.132812 256.1875 C 295.382812 256.1875 281.097656 247.324219 276.8125 244.398438 C 277.332031 235.808594 277.777344 228.339844 278.089844 222.914062 C 278.195312 221.085938 278.285156 219.488281 278.359375 218.15625 C 284.527344 220.652344 289.203125 221.542969 289.632812 221.621094 C 289.820312 221.65625 290.007812 221.671875 290.191406 221.671875 C 291.65625 221.671875 292.957031 220.625 293.230469 219.132812 C 293.535156 217.457031 292.421875 215.847656 290.742188 215.539062 C 290.527344 215.5 269.132812 211.425781 258.128906 195.375 C 252.128906 186.628906 243.117188 162.632812 233.402344 129.546875 C 231.785156 124.050781 234.59375 118.320312 239.929688 116.21875 C 242.800781 115.089844 245.914062 115.195312 248.699219 116.523438 C 251.480469 117.847656 253.519531 120.195312 254.449219 123.128906 C 258.621094 136.3125 262.304688 144.949219 265.390625 148.808594 C 268.773438 153.03125 273.019531 155.960938 277.519531 159.0625 C 282.226562 162.308594 287.089844 165.667969 291.640625 170.921875 C 300.257812 180.875 303.03125 189.980469 303.054688 190.066406 C 303.535156 191.703125 305.253906 192.644531 306.890625 192.164062 C 308.527344 191.6875 309.46875 189.96875 308.988281 188.332031 C 308.867188 187.910156 305.867188 177.910156 296.316406 166.878906 C 291.25 161.027344 285.820312 157.28125 281.03125 153.976562 C 280.492188 153.605469 279.960938 153.238281 279.441406 152.878906 L 290.007812 61.847656 C 290.257812 59.691406 291.335938 57.757812 293.039062 56.410156 C 294.742188 55.0625 296.867188 54.453125 299.027344 54.707031 C 301.183594 54.957031 303.117188 56.03125 304.464844 57.734375 C 305.816406 59.4375 306.421875 61.566406 306.167969 63.726562 L 306.171875 63.726562 L 298.734375 127.796875 C 295.820312 128.285156 293.957031 128.753906 293.714844 128.816406 C 292.0625 129.238281 291.066406 130.921875 291.492188 132.578125 C 291.917969 134.230469 293.597656 135.226562 295.253906 134.804688 C 295.433594 134.753906 313.664062 130.191406 328.28125 135.019531 C 342.464844 139.699219 348.808594 152.441406 348.871094 152.5625 C 349.402344 153.667969 350.507812 154.316406 351.65625 154.316406 C 352.105469 154.316406 352.5625 154.21875 352.996094 154.007812 C 354.53125 153.269531 355.179688 151.421875 354.441406 149.882812 C 354.292969 149.578125 352.449219 145.828125 348.582031 141.457031 L 352.199219 110.304688 C 352.460938 108.039062 353.589844 106.015625 355.375 104.601562 C 357.160156 103.1875 359.386719 102.554688 361.652344 102.816406 C 366.117188 103.332031 369.429688 107.25 369.1875 111.734375 C 368.339844 127.613281 365.933594 162.8125 360.523438 184.464844 Z M 414.238281 192.339844 C 409.214844 191.214844 404.226562 190.867188 400.035156 190.855469 L 414.527344 121.984375 C 415.332031 118.152344 419.101562 115.691406 422.9375 116.496094 C 426.769531 117.300781 429.230469 121.074219 428.425781 124.90625 L 424.429688 143.902344 C 424.429688 143.902344 424.429688 143.902344 424.429688 143.90625 Z M 444.375 148.101562 L 433.035156 202.003906 C 430.21875 199.355469 426.703125 196.828125 422.367188 194.941406 C 421.648438 194.628906 420.921875 194.34375 420.1875 194.074219 L 430.476562 145.175781 C 431.285156 141.347656 435.0625 138.886719 438.886719 139.691406 C 440.746094 140.082031 442.335938 141.171875 443.375 142.761719 C 444.410156 144.347656 444.765625 146.246094 444.375 148.101562 Z M 444.375 148.101562 " fill-opacity="1" fill-rule="nonzero"/><path fill="#3a322b" d="M 103.132812 72.308594 C 103.707031 73.296875 104.742188 73.847656 105.808594 73.847656 C 106.335938 73.847656 106.871094 73.714844 107.359375 73.429688 C 108.835938 72.570312 109.335938 70.679688 108.480469 69.203125 L 86.871094 32.023438 C 86.011719 30.546875 84.121094 30.042969 82.644531 30.902344 C 81.167969 31.761719 80.667969 33.652344 81.527344 35.128906 Z M 103.132812 72.308594 " fill-opacity="1" fill-rule="nonzero"/></svg>